<svg width="476" height="476" viewBox="0 0 476 476" fill="none" xmlns="http://www.w3.org/2000/svg">
<g clip-path="url(#clip0_3124_11324)">
<path d="M141.308 284.155C141.308 281.083 141.308 278.011 141.308 274.638C121.716 274.638 102.69 274.638 83.2295 274.638C83.2295 269.874 83.7253 265.342 83.1264 260.959C81.8785 251.829 85.38 245.103 91.3325 238.339C107.534 219.931 123.093 200.956 138.818 182.131C140.495 180.123 142.205 179.337 144.815 179.393C152.727 179.566 160.645 179.456 168.952 179.456C168.952 202.873 168.952 226.059 168.952 249.631C173.871 249.631 178.413 249.631 183.342 249.631C183.342 255.438 183.342 260.865 183.051 266.648C179.302 267.592 175.781 267.934 172.4 268.813C160.996 271.778 151.008 277.693 141.308 284.155ZM113.67 245.262C113.575 245.49 113.48 245.719 113.471 245.911C113.471 245.911 113.491 246.002 113.026 245.841C112.43 246.868 111.834 247.896 111.274 249.352C111.284 249.496 111.293 249.639 111.378 250.141C111.633 250.278 111.888 250.53 112.145 250.533C121.347 250.645 130.549 250.775 139.751 250.791C141.564 250.794 142.201 249.558 142.19 247.736C142.129 237.496 142.21 227.255 142.078 217.017C142.064 215.928 140.982 214.852 140.395 213.77C139.71 214.796 139.025 215.821 138.324 216.792C138.324 216.792 138.377 216.814 137.923 216.837C137.66 217.298 137.397 217.76 137.085 218.154C137.085 218.154 137.166 218.135 136.799 218.231C136.696 218.448 136.593 218.666 136.48 218.786C136.48 218.786 136.573 218.818 136.165 218.902C136.02 219.27 135.875 219.638 135.723 219.99C135.723 219.99 135.739 219.992 135.434 220.126C135.321 220.312 135.208 220.498 135.087 220.64C135.087 220.64 135.131 220.647 134.813 220.775C134.695 220.965 134.576 221.154 134.473 221.296C134.473 221.296 134.516 221.322 134.047 221.327C133.527 222.157 133.006 222.987 132.509 223.847C132.509 223.847 132.472 223.836 132.192 223.988C132.022 224.131 131.914 224.311 131.863 224.492C131.863 224.492 131.899 224.497 131.591 224.631C131.472 224.816 131.353 225.001 131.231 225.141C131.231 225.141 131.27 225.162 130.806 225.174C130.086 226.233 129.366 227.291 128.649 228.353C128.649 228.353 128.645 228.351 128.347 228.482C128.237 228.664 128.126 228.846 128.004 228.996C128.004 228.996 128.037 229.005 127.724 229.131C127.61 229.32 127.495 229.508 127.373 229.649C127.373 229.649 127.419 229.657 127.093 229.788C126.983 229.988 126.873 230.189 126.753 230.317C126.753 230.317 126.826 230.322 126.483 230.444C126.372 230.651 126.261 230.857 126.143 230.982C126.143 230.982 126.224 231.002 125.858 231.093C125.752 231.309 125.645 231.525 125.532 231.646C125.532 231.646 125.622 231.676 125.18 231.744C124.844 232.347 124.508 232.949 124.155 233.506C124.155 233.506 124.2 233.526 123.721 233.51C122.871 234.659 122.021 235.809 121.089 236.898C121.089 236.898 121.184 236.862 120.76 236.924C120.612 237.297 120.463 237.67 120.292 238.002C120.292 238.002 120.331 238.027 119.886 238.052C119.624 238.511 119.363 238.97 119.057 239.366C119.057 239.366 119.13 239.343 118.775 239.453C118.665 239.666 118.554 239.878 118.44 239.987C118.44 239.987 118.54 240.013 118.144 240.116C117.998 240.478 117.853 240.841 117.716 241.218C117.716 241.218 117.699 241.216 117.4 241.347C117.295 241.531 117.189 241.715 117.071 241.863C117.071 241.863 117.109 241.872 116.792 242.007C116.681 242.202 116.569 242.397 116.47 242.533C116.47 242.533 116.523 242.559 116.047 242.557C115.604 243.256 115.162 243.956 114.648 244.626C114.648 244.626 114.707 244.575 114.319 244.618C114.212 244.839 114.105 245.06 113.978 245.191C113.978 245.191 114.064 245.222 113.67 245.262Z" fill="#372B55"/>
<path d="M195.015 259.732C192.275 243.064 192.297 226.444 196.26 209.965C200.267 193.302 210.945 183.598 227.741 180.555C236.578 178.955 245.44 178.835 254.242 180.701C267.167 183.441 276.626 190.963 281.003 203.3C289.136 226.217 289.006 249.554 281.751 272.713C277.95 284.847 269.563 292.6 256.719 295.626C253.174 295.816 250.057 296.187 245.874 296.686C258.222 276.844 264.501 255.347 272.782 234.675C272.558 234.49 272.334 234.305 272.111 234.119C266.855 237.608 261.599 241.097 255.955 244.843C255.955 241.963 255.955 239.533 255.958 236.877C256.449 235.598 256.906 234.529 257.431 233.494C260.589 227.27 263.764 221.054 267.023 214.787C267.068 214.782 267.022 214.826 266.739 214.795C262.419 216.644 258.338 218.569 254.215 220.235C253.007 215.787 252.259 211.421 250.564 207.459C248.666 203.022 244.795 200.739 239.83 200.666C233.565 200.573 228.722 204.434 227.255 212.062C225.914 219.039 225.665 226.226 224.831 233.425C224.806 233.785 224.886 234.041 224.951 234.518C224.957 235.18 224.977 235.621 224.817 236.172C221.971 238.063 219.146 239.649 216.67 241.663C209.378 247.595 202.224 253.697 195.015 259.732Z" fill="#372B55"/>
<path d="M353.048 274.522C352.779 274.525 352.511 274.529 351.961 274.232C350.561 273.748 349.445 273.411 348.327 273.408C336.128 273.37 323.928 273.389 311.728 273.376C310.626 273.375 309.524 273.261 307.422 273.145C310.376 263.84 312.89 255.081 315.938 246.511C320.819 232.787 328.623 220.754 338.397 210.019C347.35 200.187 357.71 191.984 368.71 184.577C370.25 183.54 372.032 182.863 373.942 182.024C375.105 181.813 376.027 181.598 377.201 181.384C378.751 181.189 380.049 180.993 381.375 181.093C381.412 203.107 381.411 224.825 381.456 246.543C381.459 247.76 381.848 248.976 382.248 250.386C385.519 250.676 388.602 250.9 391.678 250.833C394.66 250.768 395.675 252.151 395.42 254.89C394.413 255.261 393.535 255.584 392.658 255.907C395.775 256.189 395.636 258.265 395.607 260.324C395.569 262.993 395.63 265.664 395.59 268.333C395.542 271.486 394.298 272.677 391.079 272.738C390.011 272.758 388.804 272.432 387.903 272.822C385.821 273.724 382.776 271.298 381.463 274.994C381.448 280.648 381.353 286.005 381.49 291.357C381.551 293.76 380.995 294.755 378.306 294.72C372.439 294.643 366.566 294.963 360.695 295.13C355.82 295.269 355.035 294.541 355.102 289.504C355.164 284.811 355.373 280.121 355.456 275.429C355.461 275.171 354.902 274.903 354.455 274.586C354.305 274.532 353.987 274.535 353.987 274.535C353.987 274.535 353.921 274.567 353.876 274.403C353.709 274.108 353.586 273.978 353.464 273.847C353.325 274.072 353.186 274.297 353.048 274.522ZM349.154 220.18C340.956 229.838 332.757 239.496 324.244 249.523C334.64 249.523 344.401 249.523 354.185 249.523C354.185 237.795 354.185 226.288 354.185 214.316C352.361 216.429 350.897 218.124 349.154 220.18Z" fill="#372B55"/>
<path d="M254.256 220.498C258.337 218.573 262.418 216.648 266.727 214.789C266.955 214.855 266.932 214.839 266.932 214.839C263.763 221.058 260.588 227.274 257.429 233.498C256.905 234.533 256.448 235.602 255.779 237.061C255.439 238.111 255.281 238.755 254.924 239.442C252.799 242.877 250.987 246.339 248.922 249.642C244.936 256.021 240.798 262.304 236.743 268.64C235.614 270.405 234.557 272.215 233.254 274.05C227.45 279.98 221.85 285.856 216.297 291.775C216.047 292.042 216.224 292.71 216.202 293.191C215.583 293.549 214.965 293.907 214.032 294.503C210.058 298.464 206.396 302.187 202.702 305.66C201.921 304.399 201.281 303.282 200.408 302.393C192.387 294.229 184.327 286.104 176.371 277.772C179.433 274.789 182.428 272.028 185.344 269.187C185.843 268.7 186.004 267.866 186.32 267.192C189.142 264.839 191.963 262.486 194.899 259.935C202.223 253.701 209.377 247.599 216.669 241.667C219.145 239.653 221.97 238.067 225.036 236.101C229.692 233.671 233.958 231.445 238.199 229.173C243.562 226.301 248.905 223.391 254.256 220.498ZM200.013 270.352C200.341 276.077 203.832 280.038 209.776 281.427C214.749 282.589 220.524 279.952 223.142 275.324C225.556 271.055 224.749 264.458 221.385 260.977C217.409 256.862 212.741 255.747 207.676 257.701C202.632 259.648 200.046 263.721 200.013 270.352Z" fill="#625580"/>
<path d="M137.651 376.367C137.487 376.214 137.323 376.061 137.017 375.564C137.444 372.139 138.014 369.057 138.676 365.47C136.828 367.809 135.281 369.765 133.735 371.722C133.735 371.722 133.769 371.794 133.544 371.805C132.389 372.654 131.458 373.492 130.528 374.329C120.215 381.359 108.694 384.515 96.3351 384.801C95.0567 384.83 93.7555 383.872 92.4648 383.373C92.9875 382.121 93.1653 380.456 94.089 379.685C99.9405 374.8 101.182 368.026 102.365 361.079C103.456 354.667 104.435 348.158 106.399 341.99C109.757 331.443 117.337 325.139 128.203 322.85C129.141 322.653 130.051 322.327 131.283 321.945C141.116 331.397 150.639 340.964 160.162 350.532C159.743 350.902 159.038 351.212 158.948 351.65C156.788 362.137 150.432 369.588 141.54 375.625C141.014 375.888 140.89 376.048 140.842 376.268C140.842 376.268 140.87 376.291 140.589 376.288C139.423 376.312 138.537 376.34 137.651 376.367Z" fill="#372B55"/>
<path d="M255.121 239.392C255.279 238.749 255.437 238.106 255.773 237.282C255.952 239.531 255.952 241.961 255.952 244.841C261.596 241.095 266.852 237.606 272.108 234.117C272.332 234.303 272.555 234.488 272.779 234.674C264.498 255.345 258.219 276.842 245.871 296.684C250.054 296.186 253.171 295.814 256.473 295.598C243.07 299.088 229.69 298.972 216.42 293.267C216.222 292.704 216.045 292.036 216.295 291.77C221.848 285.85 227.448 279.974 233.435 274.197C235.53 274.875 237.199 275.804 238.933 275.949C244.917 276.451 249.616 273.091 251.987 266.668C255.242 257.848 254.924 248.583 255.121 239.392Z" fill="#423366"/>
<path d="M296.628 130.012C294.087 123.91 291.545 117.809 288.906 111.234C288.163 108.202 287.616 105.611 286.808 103.104C286.601 102.464 285.568 102.092 284.914 101.596C287.65 98.6723 288.935 95.7109 285.291 92.4894C284.992 92.2249 285.107 91.4918 285.254 90.8474C286.955 91.6897 288.312 93.0497 289.935 93.5511C293.242 94.5732 296.952 92.3971 298.18 89.1346C299.322 86.0997 298.402 83.0768 295.914 81.6418C295.931 81.6529 295.954 81.6865 296.071 81.4603C293.644 78.7414 290.739 78.9836 287.718 80.1164C288.718 77.3889 292.014 76.3484 295.717 77.4367C300.122 78.7316 302.371 81.7452 303.078 86.1392C303.263 87.2855 303.608 88.4057 303.819 89.2841C312.791 93.7937 321.88 97.9031 327.165 106.905C329.503 110.888 331.324 115.191 333.13 119.455C333.448 120.207 332.527 121.484 331.803 122.691C330.104 122.207 328.781 121.55 327.174 120.752C326.862 120.91 326.129 121.281 325.397 121.639C325.397 121.626 325.421 121.633 325.466 121.396C325.719 119.7 326.603 117.799 325.997 116.874C324.738 114.952 322.689 113.548 320.973 111.926C320.981 111.922 320.976 111.94 320.928 111.828C320.801 111.568 320.688 111.455 320.416 111.184C318.463 107.965 315.659 106.298 313.047 105.167C314.633 110.383 316.236 115.654 317.602 120.946C310.453 123.982 303.54 126.997 296.628 130.012ZM306.62 114.417C306.752 113.726 307.182 112.92 306.967 112.363C305.764 109.233 304.438 106.148 303.069 103.085C302.815 102.516 302.176 102.118 301.199 101.647C298.175 102.594 295.124 103.468 292.135 104.517C290.244 105.181 289.113 106.317 290.064 108.641C291.104 111.184 291.825 113.856 292.773 116.44C293.467 118.333 294.63 118.895 296.679 118.007C299.771 116.666 303.002 115.645 306.62 114.417Z" fill="#C0BBCC"/>
<path d="M202.733 305.906C206.395 302.183 210.056 298.46 213.926 294.695C215.077 306.211 210.63 316.328 205.678 326.31C205.159 327.356 204.619 328.392 203.886 329.758C203.338 330.658 202.993 331.232 202.648 331.806C197.295 339.251 191.943 346.695 186.893 353.719C181.379 348.579 176.482 344.015 171.762 339.131C175.233 335.25 178.528 331.689 181.993 328.032C189.02 320.594 195.877 313.25 202.733 305.906Z" fill="#554639"/>
<path d="M186.063 267.197C186.001 267.866 185.841 268.7 185.341 269.187C182.425 272.029 179.43 274.789 176.176 277.859C168.087 285.559 160.284 292.976 152.283 300.481C148.776 303.724 145.466 306.877 142.156 310.031C137.608 305.144 133.061 300.256 128.086 294.908C131.966 291.764 136.448 288.131 141.118 284.327C151.006 277.694 160.994 271.779 172.398 268.814C175.779 267.935 179.3 267.593 183.03 266.945C184.139 266.992 184.974 267.097 186.063 267.197Z" fill="#332A22"/>
<path d="M144.806 129.388C138.724 133.628 132.381 133.179 126.035 130.213C119.352 127.089 115.4 121.74 114.517 114.422C113.697 107.632 115.247 101.475 120.973 96.563C121.974 96.4313 122.518 96.4425 123.035 96.3338C131.541 94.5484 138.873 96.7938 144.228 103.58C149.526 110.294 150.209 117.919 146.646 125.794C146.092 127.019 145.422 128.191 144.806 129.388ZM126.592 123.207C127.984 124.152 129.362 125.852 130.77 125.876C133.267 125.919 134.709 124.174 134.456 121.369C134.223 118.786 132.514 117.87 130.361 117.8C127.987 117.723 126.2 120.146 126.592 123.207ZM141.245 110.001C139.135 110.103 137.898 111.361 138.458 113.275C138.762 114.313 140.404 115.588 141.458 115.603C142.524 115.618 144.32 114.36 144.528 113.389C144.883 111.727 144.027 110.043 141.245 110.001ZM124.897 99.2105C123.166 98.9083 121.977 99.5214 122.404 101.367C122.549 101.992 124.1 102.888 124.707 102.698C126.494 102.137 126.433 100.794 124.897 99.2105Z" fill="#C0BBCC"/>
<path d="M319.735 123.071C323.173 130.263 326.499 137.512 330.134 144.603C330.939 146.174 332.632 147.634 334.265 148.372C339.478 150.726 344.856 152.717 350.378 155.225C350.116 158.858 349.646 162.114 349.176 165.369C339.985 163.947 330.645 162.854 323.229 156.42C321.101 154.574 319.398 152.233 317.53 150.092C316.419 148.817 315.366 147.49 314.087 145.856C310.672 140.109 307.458 134.693 304.383 129.098C309.374 126.884 314.225 124.847 319.243 122.871C319.517 122.979 319.626 123.025 319.735 123.071Z" fill="#C0BBCC"/>
<path d="M304.246 129.281C307.46 134.698 310.674 140.115 313.893 145.768C312.083 156.617 318.557 164.133 323.664 172.162C324.11 172.863 324.475 173.613 324.797 174.784C322.196 177.283 319.675 179.339 317.154 181.394C309.105 172.667 301.665 163.568 299.8 151.301C298.814 144.814 298.042 138.295 297.422 131.506C299.862 130.575 302.054 129.928 304.246 129.281Z" fill="#817799"/>
<path d="M160.293 350.726C150.64 340.969 141.117 331.402 131.402 321.742C130.307 320.909 129.404 320.167 127.762 318.819C134.279 317.4 139.827 316.192 145.834 314.977C146.745 315.24 147.272 315.433 147.637 315.792C153.638 321.691 159.636 327.595 165.577 333.554C166.128 334.106 166.297 335.038 166.644 335.794C165.388 341.383 164.133 346.973 162.769 353.045C161.759 352.128 161.091 351.522 160.293 350.726Z" fill="#372B55"/>
<path d="M166.861 335.805C166.297 335.035 166.128 334.102 165.577 333.55C159.635 327.591 153.638 321.688 147.637 315.788C147.272 315.429 146.745 315.236 146.07 314.854C144.678 313.299 143.51 311.856 142.25 310.22C145.469 306.874 148.779 303.721 152.475 300.574C161.38 309.067 169.879 317.572 178.445 326.009C179.37 326.92 180.689 327.431 181.825 328.128C178.53 331.69 175.235 335.251 171.733 338.903C170.044 337.935 168.562 336.877 166.861 335.805Z" fill="#625580"/>
<path d="M354.437 374.739C354.154 374.797 353.87 374.855 353.303 374.812C352.844 374.795 352.669 374.88 352.494 374.966C349.003 374.997 345.492 375.257 342.032 374.946C340.678 374.824 338.545 373.573 338.372 372.562C338.152 371.275 339.253 369.389 340.343 368.342C341.841 366.903 343.861 366.007 346.115 364.815C348.535 365.148 350.497 365.543 352.734 365.961C360.822 365.165 368.262 362.988 375.096 359.161C377.682 357.713 379.741 355.321 382.041 353.359C385.239 353.221 388.442 352.949 391.635 353.025C392.641 353.048 394.27 353.837 394.46 354.572C394.713 355.551 394.186 357.3 393.385 357.885C389.604 360.645 385.616 363.12 381.313 365.92C372.425 370.027 363.705 373.228 354.437 374.739Z" fill="#372B55"/>
<path d="M381.979 353.134C379.742 355.324 377.683 357.715 375.096 359.164C368.263 362.991 360.822 365.167 352.745 365.675C352.487 364.615 352.553 363.861 352.49 363.118C351.794 354.936 358.144 346.044 366.402 344.606C369.071 344.141 371.817 344.117 374.528 343.891C374.528 343.891 374.543 343.938 374.568 344.139C374.789 344.459 374.985 344.576 375.181 344.694C379.134 346.03 380.329 349.629 381.979 353.134Z" fill="#372B55"/>
<path d="M202.855 331.893C202.997 331.23 203.342 330.656 203.865 329.973C207.309 333.193 210.212 337.009 213.904 339.768C230.964 352.514 258.96 353.424 275.392 336.135C283.22 327.898 286.866 317.73 288.229 306.65C289.807 293.824 291.267 280.983 292.815 268.153C292.954 266.996 293.363 265.873 294.018 264.531C295.112 264.129 295.836 263.93 296.589 263.942C296.62 264.435 296.622 264.718 296.428 265.146C296.1 266.093 295.969 266.895 295.838 267.697C295.209 269.599 294.235 271.46 294.008 273.409C292.598 285.505 291.811 297.691 289.951 309.714C287.196 327.533 278.557 341.42 260.993 348.226C242.508 355.39 215.92 350.451 202.855 331.893Z" fill="#423366"/>
<path d="M336.404 129.778C346.258 133.976 356.335 132.9 366.412 130.941C373.554 129.552 380.609 127.671 387.785 126.521C398.34 124.829 404.646 127.545 403.49 141.915C402.766 150.925 397.147 157.067 390.298 161.908C382.884 167.147 374.943 171.638 367.231 176.455C366.168 177.119 365.104 177.779 364.04 178.441C364.082 178.742 364.124 179.043 364.166 179.343C366.754 179.343 369.342 179.343 372.031 179.545C371.587 179.847 371.041 179.948 370.204 180.04C367.533 179.877 365.153 179.722 362.684 179.354C361.94 178.78 361.284 178.42 360.628 178.06C366.579 174.468 372.676 171.094 378.438 167.22C384.103 163.411 389.815 159.515 394.797 154.894C400.661 149.455 402.71 142.305 400.852 134.314C399.951 130.437 397.884 128.382 393.883 128.537C389.21 128.718 384.542 129.484 379.914 130.255C371.795 131.607 363.76 133.63 355.597 134.512C342.895 135.885 331.615 132.493 322.863 122.566C322.437 122.082 321.64 121.926 320.735 121.646C320.455 121.675 320.327 121.562 320.439 121.401C321.259 120.5 321.967 119.76 322.818 119.184C323.78 120.109 324.599 120.871 325.417 121.634C325.417 121.634 325.393 121.627 325.427 121.852C326.969 123.406 328.479 124.734 329.988 126.063C330.238 126.282 330.487 126.502 331.005 126.905C331.488 127.173 331.703 127.257 331.918 127.34C331.918 127.34 331.914 127.364 332.041 127.537C333.351 128.26 334.534 128.81 335.717 129.36C335.717 129.36 335.771 129.342 335.809 129.474C336.005 129.754 336.19 129.812 336.404 129.778Z" fill="#423366"/>
<path d="M145.036 129.365C145.423 128.189 146.093 127.017 146.647 125.792C150.21 117.917 149.527 110.292 144.229 103.578C138.874 96.7919 131.542 94.5465 123.037 96.3319C122.519 96.4406 121.976 96.4294 121.164 96.4578C125.908 90.8425 132.51 89.5549 139.308 91.027C155.675 94.5713 160.453 112.405 151.623 124.265C150.056 126.369 147.412 127.671 145.036 129.365ZM147.939 100.245C147.657 99.3041 147.466 98.3152 147.022 97.4582C146.923 97.2688 145.541 97.3691 145.416 97.6414C145.055 98.4285 145.034 99.3713 144.879 100.253C145.802 100.38 146.725 100.507 147.939 100.245Z" fill="#817799"/>
<path d="M370.497 180.05C371.043 179.949 371.589 179.849 372.291 179.61C373.555 179.469 374.662 179.466 376.033 179.652C376.297 179.841 376.293 180.11 376.07 180.13C375.132 180.774 374.416 181.396 373.699 182.019C372.03 182.863 370.248 183.54 368.709 184.576C357.708 191.983 347.348 200.186 338.396 210.018C328.621 220.754 320.817 232.786 315.936 246.51C312.888 255.08 310.374 263.84 307.42 273.144C309.522 273.261 310.624 273.374 311.726 273.375C323.926 273.388 336.126 273.369 348.326 273.407C349.443 273.411 350.559 273.748 351.771 274.158C337.922 274.436 323.978 274.486 309.629 274.387C308.839 274.328 308.454 274.419 308.069 274.509C305.285 274.52 302.501 274.531 299.367 274.416C298.817 274.362 298.618 274.434 298.419 274.505C298.163 274.516 297.907 274.528 297.445 274.307C297.152 273.831 297.065 273.586 297.035 273.343C297.092 273.344 297.207 273.345 297.504 273.357C299.299 273.375 300.83 273.182 302.289 273.428C305.34 273.941 306.2 272.394 306.874 269.731C308.8 262.123 310.76 254.501 313.235 247.06C317.345 234.708 324.179 223.742 332.263 213.678C340.374 203.579 350.111 195.081 360.665 187.54C364.016 185.147 367.223 182.553 370.497 180.05Z" fill="#372B55"/>
<path d="M360.507 178.082C361.285 178.42 361.94 178.78 362.455 179.352C355.768 183.148 348.969 186.364 343.959 192.042C343.854 191.787 343.75 191.674 343.646 191.561C343.597 191.829 343.548 192.097 343.495 192.346C343.491 192.328 343.527 192.337 343.316 192.291C342.808 192.503 342.511 192.762 342.213 192.999C342.211 192.977 342.253 192.992 342.039 192.987C341.067 193.6 340.309 194.219 339.346 194.901C325.407 205.69 307.272 228.172 309.259 232.175C310.173 231.313 311.064 230.471 311.977 229.864C311.385 231.061 310.833 232.068 310.149 232.977C307.734 236.188 304.439 239.034 303.009 242.627C300.298 249.44 298.647 256.674 296.555 263.734C295.831 263.932 295.108 264.131 294.157 264.346C293.986 263.845 294.043 263.328 294.361 262.442C294.804 261.266 294.986 260.459 295.167 259.652C295.977 255.393 296.247 250.932 297.741 246.928C299.434 242.39 302.324 238.312 304.52 233.947C314.432 214.246 329.016 198.757 347.133 186.425C348.195 185.702 349.242 184.958 350.669 184.077C351.247 183.658 351.453 183.387 351.659 183.115C351.659 183.115 351.866 183.25 351.942 183.182C352.082 182.909 352.147 182.704 352.212 182.5C352.212 182.5 352.259 182.49 352.498 182.441C353.777 181.717 354.782 180.977 355.867 180.383C357.274 179.612 358.745 178.957 360.189 178.252C360.189 178.252 360.386 178.104 360.507 178.082Z" fill="#211A33"/>
<path d="M284.731 101.708C285.568 102.097 286.602 102.469 286.808 103.109C287.617 105.616 288.164 108.206 288.813 111.022C280.004 117.427 277.243 117.862 268.471 109.173C265.545 106.274 263.081 102.861 260.727 99.4609C260.097 98.5498 260.167 96.5269 260.77 95.5304C261.755 93.901 263.235 94.5694 264.581 95.6696C265.2 96.1759 266.249 96.1575 267.37 96.4458C266.961 103.205 273.39 103.7 277.475 106.402C278.107 106.82 279.877 106.005 280.824 105.338C282.206 104.364 283.319 103.008 284.731 101.708Z" fill="#817799"/>
<path d="M374.439 343.694C371.816 344.115 369.07 344.14 366.4 344.605C358.142 346.042 351.793 354.935 352.488 363.116C352.551 363.86 352.485 364.614 352.469 365.651C350.496 365.544 348.534 365.149 346.322 364.734C346.129 363.597 346.37 362.452 346.212 361.366C345.183 354.323 348.614 346.725 354.995 343.069C361.434 339.38 367.991 339.269 374.439 343.694Z" fill="#625580"/>
<path d="M204.508 397.78C202.428 402.475 200.003 403.703 195.541 402.571C192.69 401.848 190.985 399.241 191.032 395.676C191.083 391.845 193.967 389.18 198.077 389.168C201.867 389.157 204.465 391.732 204.547 395.591C204.561 396.233 204.54 396.875 204.508 397.78Z" fill="#EDEDED"/>
<path d="M287.562 80.2619C290.738 78.988 293.642 78.7458 295.819 81.5099C293.698 80.6345 291.943 79.4911 289.641 81.4045C291.269 82.949 292.584 84.3168 294.042 85.5101C294.503 85.8877 295.546 86.1101 295.962 85.8424C296.437 85.5359 296.737 84.5923 296.701 83.9485C296.657 83.1648 296.183 82.4051 295.895 81.635C298.401 83.0812 299.32 86.1041 298.178 89.139C296.95 92.4015 293.241 94.5776 289.933 93.5555C288.311 93.054 286.953 91.6941 285.291 90.6021C283.428 85.8401 283.965 83.4887 287.562 80.2619Z" fill="#554639"/>
<path d="M381.477 274.693C382.776 271.294 385.821 273.721 387.903 272.819C388.804 272.428 390.011 272.755 391.078 272.734C394.298 272.673 395.542 271.483 395.59 268.329C395.63 265.66 395.569 262.99 395.607 260.321C395.636 258.261 395.775 256.185 392.657 255.903C393.535 255.58 394.412 255.258 395.42 254.887C395.675 252.147 394.66 250.765 391.678 250.83C388.601 250.896 385.518 250.673 382.241 250.085C382.006 226.498 381.967 203.402 381.964 180.261C381.999 180.216 382.067 180.125 382.067 180.125C382.168 181.501 382.356 182.877 382.357 184.254C382.374 204.94 382.367 225.626 382.365 246.312C382.365 247.263 382.365 248.215 382.365 249.527C387.15 249.527 391.712 249.527 396.535 249.527C396.535 257.956 396.535 266.029 396.535 274.688C391.98 274.688 387.42 274.688 382.375 274.708C381.752 274.716 381.614 274.704 381.477 274.693Z" fill="#2C2244"/>
<path d="M354.676 374.824C363.708 373.228 372.428 370.027 381.137 366.062C377.321 375.34 366.962 379.644 357.629 375.85C356.742 375.489 355.819 375.22 354.676 374.824Z" fill="#372B55"/>
<path d="M326.306 176.105C327.46 177.323 328.613 178.541 329.571 179.552C329.553 186.017 325.012 189.238 321.642 193.185C320.669 189.647 319.877 186.768 319.164 183.471C321.597 180.736 323.951 178.421 326.306 176.105Z" fill="#817799"/>
<path d="M352.594 155.594C359.416 155.808 359.562 155.961 359.57 162.833C359.572 164.851 359.657 166.873 359.553 168.886C359.506 169.797 359.091 170.689 358.505 171.634C356.955 168.231 354.751 166.08 350.895 165.702C351.367 162.176 351.98 158.885 352.594 155.594Z" fill="#C0BBCC"/>
<path d="M381.465 274.992C381.617 274.705 381.755 274.717 382.095 274.773C382.289 275.044 382.282 275.272 382.204 275.97C382.132 282.642 382.131 288.845 382.129 295.047C381.865 295.323 381.601 295.84 381.336 295.842C372.498 295.884 363.659 295.877 354.41 295.877C354.41 289.032 354.41 282.445 354.477 275.402C354.543 274.947 354.607 274.637 354.607 274.637C354.904 274.9 355.463 275.168 355.458 275.426C355.375 280.118 355.166 284.809 355.104 289.501C355.038 294.539 355.823 295.266 360.698 295.127C366.568 294.96 372.441 294.64 378.308 294.717C380.997 294.752 381.553 293.757 381.492 291.354C381.355 286.003 381.451 280.645 381.465 274.992Z" fill="#423366"/>
<path d="M304.382 129.102C302.051 129.926 299.859 130.573 297.416 131.227C296.984 130.945 296.804 130.655 296.625 130.189C303.538 126.998 310.451 123.983 317.784 120.957C318.494 121.154 318.783 121.361 319.066 121.776C319.065 122.26 319.071 122.537 319.076 122.813C314.225 124.85 309.373 126.887 304.382 129.102Z" fill="#C0BBCC"/>
<path d="M111.671 166.005C111.385 167.459 111.231 168.71 111.094 169.825C109.309 169.613 107.626 169.413 105.923 169.211C105.315 167.812 104.621 166.215 103.977 164.732C105.45 163.866 106.984 162.964 108.418 162.121C109.481 162.751 110.74 163.405 111.864 164.241C112.101 164.417 111.837 165.264 111.671 166.005Z" fill="#EDEDED"/>
<path d="M352.492 401.368C353.537 400.623 354.342 399.893 355.173 399.141C359.13 401.712 359.13 401.712 357.817 406.893C356.174 406.82 354.53 406.747 353.23 406.69C352.444 405.159 351.681 403.737 351.033 402.265C350.99 402.168 351.826 401.685 352.492 401.368Z" fill="#F1FAFC"/>
<path d="M326.198 175.945C323.955 178.419 321.601 180.734 319.13 183.24C318.408 182.894 317.803 182.356 317.176 181.604C319.674 179.335 322.195 177.28 324.804 175.008C325.29 175.122 325.687 175.454 326.198 175.945Z" fill="#C0BBCC"/>
<path d="M352.444 155.445C351.985 158.89 351.372 162.181 350.647 165.683C350.175 165.808 349.815 165.722 349.316 165.505C349.648 162.118 350.118 158.863 350.595 155.331C351.164 155.133 351.727 155.213 352.444 155.445Z" fill="#625580"/>
<path d="M133.965 371.748C135.281 369.768 136.827 367.811 138.676 365.473C138.013 369.06 137.444 372.141 136.893 375.452C136.418 374.796 135.969 373.883 135.413 373.04C135.097 372.559 134.607 372.191 133.965 371.748Z" fill="#C0BBCC"/>
<path d="M329.997 125.83C328.482 124.735 326.973 123.406 325.43 121.865C326.128 121.282 326.861 120.912 327.173 120.754C328.78 121.551 330.104 122.208 331.674 122.868C331.282 123.779 330.642 124.688 329.997 125.83Z" fill="#E8F8FC"/>
<path d="M217.474 108.294C215.067 110.864 214.134 110.606 213.125 107.21C213.754 106.73 214.416 106.225 215.521 105.383C216.229 106.306 216.922 107.208 217.474 108.294Z" fill="#EDEDED"/>
<path d="M85.2602 97.8389C84.1199 97.3933 82.6649 96.9981 82.3144 96.1476C82.0082 95.4049 82.9458 94.1496 83.3087 93.1875C86.348 94.129 85.9541 95.8865 85.2602 97.8389Z" fill="#EDEDED"/>
<path d="M278.738 390.905C277.666 390.637 276.597 390.448 276.076 389.811C275.804 389.477 276.311 388.177 276.819 387.661C277.11 387.365 278.599 387.597 278.697 387.883C279.005 388.78 278.908 389.816 278.738 390.905Z" fill="#C0BBCC"/>
<path d="M382.207 294.827C382.129 288.848 382.13 282.646 382.129 276.129C382.18 282.077 382.234 288.34 382.207 294.827Z" fill="#2C2244"/>
<path d="M295.836 267.982C295.965 266.899 296.096 266.097 296.585 265.355C297.03 268.059 297.118 270.701 297.206 273.344C297.206 273.344 297.091 273.343 296.862 273.358C296.397 273.374 296.162 273.374 295.927 273.375C295.898 271.671 295.868 269.968 295.836 267.982Z" fill="#211A33"/>
<path d="M359.956 178.301C358.746 178.959 357.275 179.614 355.868 180.385C354.783 180.979 353.778 181.719 352.512 182.423C352.905 180.419 354.063 179.232 356.402 179.267C357.504 179.283 358.616 178.673 359.956 178.301Z" fill="#423366"/>
<path d="M376.293 180.106C376.293 180.106 376.297 179.837 376.305 179.703C378.158 179.588 380.004 179.608 381.957 179.876C382.066 180.124 381.998 180.215 381.83 180.281C381.521 180.47 381.416 180.619 381.346 180.793C380.047 180.989 378.749 181.185 377.184 181.19C376.709 180.701 376.501 180.403 376.293 180.106Z" fill="#2C2244"/>
<path d="M130.766 374.345C131.457 373.495 132.388 372.658 133.522 371.773C132.819 372.604 131.912 373.481 130.766 374.345Z" fill="#C0BBCC"/>
<path d="M335.709 129.115C334.534 128.811 333.351 128.262 332.051 127.531C333.189 127.856 334.445 128.362 335.709 129.115Z" fill="#E8F8FC"/>
<path d="M137.762 376.563C138.537 376.342 139.423 376.315 140.576 376.277C140.182 378.435 139.031 377.621 137.762 376.563Z" fill="#C0BBCC"/>
<path d="M295.033 259.812C294.99 260.457 294.808 261.264 294.473 262.202C294.51 261.547 294.702 260.761 295.033 259.812Z" fill="#423366"/>
<path d="M295.914 273.598C296.162 273.373 296.397 273.372 296.804 273.355C297.064 273.583 297.151 273.828 297.256 274.265C296.816 274.246 296.358 274.035 295.914 273.598Z" fill="#423366"/>
<path d="M319.24 122.874C319.069 122.536 319.063 122.26 319.273 121.777C319.768 121.568 320.047 121.565 320.327 121.562C320.327 121.562 320.456 121.675 320.524 121.729C320.402 122.123 320.212 122.464 319.877 122.939C319.624 123.028 319.515 122.982 319.24 122.874Z" fill="#423366"/>
<path d="M308.293 274.584C308.453 274.421 308.838 274.331 309.329 274.367C309.13 274.548 308.824 274.602 308.293 274.584Z" fill="#423366"/>
<path d="M353.251 274.572C353.186 274.293 353.325 274.069 353.463 273.844C353.586 273.974 353.708 274.105 353.846 274.377C353.727 274.554 353.591 274.59 353.251 274.572Z" fill="#423366"/>
<path d="M351.482 183.141C351.451 183.385 351.245 183.656 350.852 183.953C350.878 183.709 351.093 183.438 351.482 183.141Z" fill="#423366"/>
<path d="M352.66 374.999C352.665 374.878 352.84 374.792 353.08 374.801C353.041 374.942 352.935 374.989 352.66 374.999Z" fill="#372B55"/>
<path d="M140.987 376.233C140.886 376.048 141.01 375.888 141.366 375.766C141.454 375.946 141.326 376.098 140.987 376.233Z" fill="#C0BBCC"/>
<path d="M336.322 129.661C336.191 129.812 336.005 129.754 335.781 129.471C335.918 129.334 336.093 129.404 336.322 129.661Z" fill="#E8F8FC"/>
<path d="M375.127 344.53C374.984 344.573 374.788 344.456 374.578 344.159C374.734 344.109 374.904 344.239 375.127 344.53Z" fill="#625580"/>
<path d="M331.828 127.192C331.708 127.258 331.493 127.175 331.18 126.944C331.298 126.878 331.516 126.96 331.828 127.192Z" fill="#E8F8FC"/>
<path d="M352.052 182.527C352.146 182.707 352.081 182.912 351.836 183.122C351.735 182.935 351.814 182.744 352.052 182.527Z" fill="#423366"/>
<path d="M298.605 274.564C298.621 274.433 298.821 274.362 299.086 274.395C299.032 274.541 298.91 274.583 298.605 274.564Z" fill="#423366"/>
<path d="M354.457 274.587C354.607 274.64 354.543 274.95 354.497 275.101C354.295 275.132 354.166 274.988 354.026 274.677C353.989 274.536 354.307 274.533 354.457 274.587Z" fill="#423366"/>
<path d="M111.302 249.781C111.292 249.638 111.282 249.495 111.44 249.031C112.235 247.807 112.862 246.904 113.49 246.001C113.49 246.001 113.469 245.911 113.622 245.91C113.871 245.68 113.967 245.451 114.063 245.222C114.063 245.222 113.976 245.19 114.18 245.216C114.491 245.019 114.598 244.797 114.705 244.575C114.705 244.575 114.647 244.626 114.873 244.576C115.573 243.871 116.047 243.215 116.521 242.559C116.521 242.559 116.468 242.533 116.633 242.512C116.901 242.284 117.004 242.078 117.107 241.872C117.107 241.872 117.069 241.862 117.241 241.837C117.508 241.613 117.602 241.414 117.697 241.216C117.697 241.216 117.714 241.218 117.885 241.123C118.216 240.69 118.378 240.351 118.539 240.013C118.539 240.013 118.438 239.987 118.631 240.002C118.925 239.792 119.027 239.567 119.129 239.343C119.129 239.343 119.055 239.366 119.27 239.345C119.767 238.892 120.048 238.459 120.33 238.026C120.33 238.026 120.29 238.001 120.485 237.946C120.848 237.547 121.015 237.204 121.183 236.861C121.183 236.861 121.087 236.898 121.328 236.874C122.446 235.742 123.322 234.634 124.199 233.525C124.199 233.525 124.153 233.505 124.355 233.446C124.911 232.817 125.266 232.246 125.621 231.676C125.621 231.676 125.53 231.645 125.726 231.662C126.022 231.453 126.122 231.227 126.222 231.001C126.222 231.001 126.142 230.982 126.336 230.991C126.628 230.774 126.726 230.548 126.824 230.321C126.824 230.321 126.752 230.316 126.941 230.316C127.226 230.095 127.322 229.876 127.418 229.656C127.418 229.656 127.371 229.649 127.553 229.639C127.835 229.421 127.935 229.213 128.035 229.005C128.035 229.005 128.003 228.995 128.173 228.966C128.444 228.741 128.544 228.546 128.644 228.351C128.644 228.351 128.647 228.353 128.834 228.257C129.77 227.162 130.519 226.162 131.269 225.162C131.269 225.162 131.229 225.14 131.4 225.118C131.68 224.895 131.789 224.696 131.897 224.496C131.897 224.496 131.861 224.492 132.023 224.456C132.281 224.225 132.375 224.03 132.47 223.835C132.47 223.835 132.507 223.847 132.684 223.747C133.413 222.872 133.964 222.097 134.515 221.321C134.515 221.321 134.471 221.296 134.64 221.282C134.916 221.061 135.023 220.854 135.13 220.647C135.13 220.647 135.086 220.639 135.259 220.617C135.534 220.394 135.636 220.193 135.738 219.992C135.738 219.992 135.721 219.99 135.903 219.914C136.247 219.498 136.409 219.158 136.571 218.818C136.571 218.818 136.479 218.785 136.674 218.803C136.968 218.592 137.066 218.364 137.164 218.135C137.164 218.135 137.084 218.154 137.299 218.133C137.802 217.679 138.088 217.246 138.375 216.814C138.375 216.814 138.323 216.792 138.545 216.727C139.401 216.072 140.034 215.482 140.974 214.605C140.974 226.573 140.974 237.97 140.974 249.781C130.938 249.781 121.12 249.781 111.302 249.781Z" fill="#F7FDFD"/>
<path d="M111.344 249.957C121.125 249.777 130.943 249.777 140.979 249.777C140.979 237.965 140.979 226.569 140.979 214.601C140.039 215.478 139.406 216.068 138.559 216.75C139.029 215.816 139.713 214.791 140.398 213.766C140.985 214.847 142.067 215.923 142.082 217.012C142.214 227.25 142.133 237.491 142.194 247.731C142.204 249.553 141.568 250.789 139.754 250.786C130.552 250.771 121.35 250.641 112.149 250.529C111.891 250.526 111.637 250.273 111.344 249.957Z" fill="#372B55"/>
<path d="M123.957 233.516C123.32 234.632 122.444 235.741 121.367 236.903C122.018 235.807 122.868 234.657 123.957 233.516Z" fill="#372B55"/>
<path d="M113.256 245.922C112.862 246.905 112.235 247.808 111.422 248.818C111.832 247.897 112.428 246.869 113.256 245.922Z" fill="#372B55"/>
<path d="M131.036 225.168C130.519 226.162 129.769 227.162 128.832 228.256C129.364 227.291 130.084 226.233 131.036 225.168Z" fill="#372B55"/>
<path d="M134.28 221.32C133.963 222.093 133.412 222.868 132.672 223.728C133.004 222.983 133.524 222.153 134.28 221.32Z" fill="#372B55"/>
<path d="M116.284 242.559C116.049 243.215 115.574 243.871 114.91 244.591C115.162 243.956 115.604 243.257 116.284 242.559Z" fill="#372B55"/>
<path d="M138.149 216.824C138.089 217.246 137.802 217.678 137.324 218.166C137.396 217.759 137.659 217.297 138.149 216.824Z" fill="#372B55"/>
<path d="M120.107 238.039C120.049 238.459 119.767 238.892 119.293 239.376C119.362 238.969 119.623 238.511 120.107 238.039Z" fill="#372B55"/>
<path d="M125.399 231.707C125.266 232.244 124.911 232.814 124.363 233.467C124.507 232.946 124.842 232.344 125.399 231.707Z" fill="#372B55"/>
<path d="M118.346 240.062C118.384 240.35 118.222 240.689 117.886 241.114C117.857 240.839 118.003 240.476 118.346 240.062Z" fill="#372B55"/>
<path d="M136.368 218.855C136.41 219.154 136.247 219.494 135.907 219.918C135.874 219.633 136.019 219.265 136.368 218.855Z" fill="#372B55"/>
<path d="M120.972 236.891C121.016 237.202 120.849 237.545 120.497 237.964C120.462 237.668 120.611 237.295 120.972 236.891Z" fill="#372B55"/>
<path d="M126.042 231.047C126.124 231.227 126.024 231.453 125.732 231.71C125.646 231.524 125.753 231.308 126.042 231.047Z" fill="#372B55"/>
<path d="M136.981 218.18C137.066 218.361 136.968 218.589 136.679 218.849C136.591 218.662 136.694 218.445 136.981 218.18Z" fill="#372B55"/>
<path d="M135.586 220.059C135.637 220.193 135.535 220.394 135.264 220.639C135.208 220.497 135.321 220.311 135.586 220.059Z" fill="#372B55"/>
<path d="M134.973 220.711C135.025 220.854 134.919 221.061 134.636 221.306C134.577 221.154 134.696 220.965 134.973 220.711Z" fill="#372B55"/>
<path d="M132.332 223.914C132.377 224.033 132.283 224.227 132.029 224.476C131.915 224.313 132.022 224.133 132.332 223.914Z" fill="#372B55"/>
<path d="M131.743 224.559C131.789 224.691 131.68 224.89 131.402 225.135C131.351 224.995 131.47 224.811 131.743 224.559Z" fill="#372B55"/>
<path d="M128.497 228.414C128.546 228.544 128.446 228.739 128.181 228.98C128.127 228.843 128.238 228.661 128.497 228.414Z" fill="#372B55"/>
<path d="M127.882 229.066C127.938 229.212 127.838 229.42 127.56 229.661C127.497 229.506 127.611 229.318 127.882 229.066Z" fill="#372B55"/>
<path d="M127.257 229.719C127.324 229.873 127.228 230.092 126.948 230.349C126.874 230.185 126.984 229.985 127.257 229.719Z" fill="#372B55"/>
<path d="M126.655 230.379C126.728 230.544 126.63 230.77 126.342 231.028C126.262 230.854 126.373 230.647 126.655 230.379Z" fill="#372B55"/>
<path d="M118.953 239.398C119.029 239.568 118.927 239.793 118.635 240.054C118.555 239.879 118.665 239.666 118.953 239.398Z" fill="#372B55"/>
<path d="M117.551 241.281C117.606 241.414 117.511 241.613 117.251 241.855C117.191 241.715 117.297 241.531 117.551 241.281Z" fill="#372B55"/>
<path d="M116.951 241.938C117.006 242.076 116.903 242.283 116.629 242.539C116.569 242.395 116.681 242.2 116.951 241.938Z" fill="#372B55"/>
<path d="M114.514 244.594C114.601 244.795 114.494 245.017 114.193 245.258C114.107 245.057 114.213 244.836 114.514 244.594Z" fill="#372B55"/>
<path d="M113.868 245.242C113.97 245.452 113.874 245.681 113.582 245.929C113.481 245.719 113.576 245.49 113.868 245.242Z" fill="#372B55"/>
<path d="M254.214 220.239C248.904 223.391 243.562 226.301 238.199 229.173C233.957 231.445 229.691 233.671 225.216 235.992C224.975 235.625 224.955 235.184 224.997 234.276C225.018 233.647 224.976 233.486 224.934 233.324C225.664 226.23 225.912 219.043 227.253 212.066C228.72 204.438 233.564 200.577 239.829 200.67C244.793 200.743 248.664 203.026 250.563 207.463C252.257 211.425 253.006 215.791 254.214 220.239Z" fill="#F7FDFD"/>
<path d="M224.825 233.43C224.971 233.487 225.013 233.648 225.007 234.056C224.88 234.047 224.8 233.79 224.825 233.43Z" fill="#625580"/>
<path d="M266.963 214.863C267.019 214.829 267.065 214.785 267.02 214.789C266.93 214.837 266.953 214.854 266.963 214.863Z" fill="#625580"/>
<path d="M349.295 220C350.899 218.124 352.363 216.429 354.187 214.316C354.187 226.288 354.187 237.795 354.187 249.523C344.403 249.523 334.641 249.523 324.246 249.523C332.759 239.496 340.957 229.838 349.295 220Z" fill="#F7FDFD"/>
<path d="M381.371 181.095C381.413 180.625 381.518 180.477 381.792 180.332C381.964 203.407 382.002 226.503 382.047 249.897C381.844 248.978 381.455 247.762 381.452 246.545C381.407 224.827 381.408 203.109 381.371 181.095Z" fill="#372B55"/>
<path d="M376.068 180.125C376.498 180.402 376.706 180.699 376.93 181.187C376.023 181.592 375.1 181.807 373.938 182.018C374.413 181.391 375.129 180.768 376.068 180.125Z" fill="#372B55"/>
<path d="M181.995 328.036C180.688 327.434 179.369 326.923 178.444 326.012C169.878 317.575 161.379 309.07 152.672 300.489C160.286 292.976 168.09 285.559 176.085 278.055C184.326 286.104 192.387 294.229 200.407 302.393C201.28 303.282 201.921 304.399 202.702 305.66C195.878 313.254 189.022 320.597 181.995 328.036Z" fill="#817799"/>
<path d="M254.922 239.441C254.924 248.587 255.242 257.852 251.987 266.673C249.616 273.095 244.918 276.456 238.933 275.954C237.199 275.809 235.531 274.879 233.648 274.156C234.555 272.214 235.612 270.404 236.742 268.639C240.796 262.303 244.935 256.02 248.921 249.641C250.985 246.338 252.797 242.876 254.922 239.441Z" fill="#F7FDFD"/>
<path d="M200.012 270.06C200.046 263.717 202.631 259.644 207.676 257.697C212.74 255.743 217.409 256.858 221.385 260.973C224.748 264.455 225.556 271.051 223.141 275.32C220.523 279.948 214.748 282.585 209.775 281.423C203.832 280.034 200.341 276.073 200.012 270.06ZM217.132 275.437C220.126 272.329 220.853 269.402 219.422 266.158C218.072 263.098 215.626 261.583 212.377 261.39C209.227 261.203 206.272 263.148 204.967 266.089C203.679 268.993 204.405 272.806 206.668 275.014C209.295 277.576 212.474 277.807 217.132 275.437Z" fill="#F1FAFC"/>
<path d="M306.173 114.486C303.001 115.643 299.77 116.665 296.677 118.005C294.629 118.893 293.466 118.331 292.771 116.438C291.824 113.854 291.102 111.183 290.062 108.639C289.112 106.315 290.243 105.179 292.134 104.516C295.123 103.466 298.173 102.593 301.459 101.887C301.932 102.824 302.111 103.532 302.362 104.214C303.622 107.642 304.901 111.063 306.173 114.486ZM296.997 115.904C299.203 114.965 301.41 114.026 303.616 113.087C301.92 112.056 295.642 113.788 294.985 114.791C294.792 115.087 294.862 115.556 294.812 115.946C295.389 115.994 295.966 116.043 296.997 115.904ZM293.768 111.255C294.686 110.641 295.84 110.187 296.416 109.341C296.68 108.952 295.873 107.15 295.444 107.109C294.436 107.012 292.705 107.342 292.475 107.953C292.156 108.802 292.943 110.067 293.768 111.255Z" fill="#F1FAFC"/>
<path d="M320.443 121.401C320.051 121.566 319.772 121.568 319.283 121.57C318.785 121.361 318.495 121.154 318.022 120.936C316.236 115.655 314.633 110.384 313.047 105.168C315.658 106.299 318.463 107.965 320.443 111.306C320.69 111.765 320.817 111.872 320.976 111.941C320.976 111.941 320.981 111.923 321.004 112.147C321.452 113.463 321.877 114.555 322.292 115.867C322.437 116.613 322.591 117.141 322.763 117.894C322.747 118.42 322.713 118.721 322.679 119.022C321.971 119.761 321.263 120.5 320.443 121.401Z" fill="#625580"/>
<path d="M322.819 119.182C322.709 118.719 322.743 118.418 322.819 117.679C322.673 116.709 322.485 116.177 322.298 115.645C321.873 114.553 321.449 113.46 320.992 112.148C322.685 113.546 324.734 114.951 325.993 116.873C326.599 117.798 325.715 119.698 325.462 121.395C324.599 120.869 323.781 120.107 322.819 119.182Z" fill="#E8F8FC"/>
<path d="M306.398 114.453C304.903 111.066 303.624 107.645 302.364 104.217C302.114 103.535 301.935 102.827 301.719 101.887C302.176 102.119 302.816 102.517 303.07 103.086C304.439 106.149 305.765 109.234 306.968 112.364C307.183 112.922 306.753 113.727 306.398 114.453Z" fill="#625580"/>
<path d="M320.925 111.826C320.815 111.869 320.689 111.762 320.566 111.497C320.686 111.454 320.799 111.566 320.925 111.826Z" fill="#E8F8FC"/>
<path d="M311.049 104.514C311.027 104.48 311.071 104.548 311.049 104.514V104.514Z" fill="#625580"/>
<path d="M126.483 122.987C126.2 120.145 127.987 117.722 130.36 117.799C132.514 117.868 134.222 118.785 134.456 121.368C134.709 124.172 133.266 125.918 130.769 125.875C129.362 125.85 127.983 124.151 126.483 122.987Z" fill="#817799"/>
<path d="M141.502 110C144.023 110.041 144.878 111.725 144.523 113.387C144.316 114.358 142.519 115.616 141.454 115.601C140.399 115.586 138.758 114.311 138.454 113.273C137.894 111.359 139.131 110.101 141.502 110Z" fill="#817799"/>
<path d="M125.114 99.3255C126.432 100.792 126.493 102.135 124.706 102.695C124.099 102.885 122.548 101.99 122.403 101.365C121.976 99.5189 123.165 98.9058 125.114 99.3255Z" fill="#817799"/>
<path d="M297.504 273.355C297.119 270.701 297.031 268.058 296.782 265.21C296.619 264.721 296.617 264.438 296.586 263.945C298.648 256.675 300.299 249.441 303.01 242.628C304.44 239.034 307.735 236.189 310.15 232.978C310.834 232.069 311.386 231.061 311.985 229.866C311.97 229.633 311.966 229.621 312.176 229.607C312.654 229.168 312.924 228.743 313.21 228.317C313.226 228.317 313.216 228.286 313.423 228.268C313.942 227.855 314.255 227.461 314.677 226.884C322.631 217.309 330.474 207.915 338.468 198.448C338.788 198.093 338.956 197.811 339.287 197.446C339.725 196.97 340.001 196.576 340.473 196.079C341.198 194.982 341.726 193.987 342.254 192.993C342.254 192.993 342.212 192.978 342.394 193.162C342.894 193.01 343.211 192.674 343.528 192.337C343.528 192.337 343.492 192.329 343.615 192.31C343.737 192.292 343.961 192.184 343.961 192.184C348.97 186.364 355.769 183.149 362.545 179.566C365.155 179.722 367.536 179.877 370.207 180.04C367.224 182.551 364.016 185.145 360.665 187.539C350.111 195.079 340.374 203.577 332.263 213.676C324.179 223.741 317.345 234.706 313.236 247.059C310.76 254.499 308.8 262.122 306.874 269.73C306.2 272.392 305.34 273.939 302.289 273.426C300.83 273.181 299.299 273.373 297.504 273.355Z" fill="#372B55"/>
<path d="M147.793 100.442C146.725 100.51 145.802 100.383 144.879 100.256C145.033 99.3739 145.055 98.4311 145.415 97.644C145.54 97.3716 146.923 97.2713 147.021 97.4608C147.466 98.3178 147.657 99.3066 147.793 100.442Z" fill="#C0BBCC"/>
<path d="M340.28 196.185C340.004 196.579 339.729 196.973 339.122 197.499C338.634 197.93 338.477 198.227 338.321 198.525C330.477 207.918 322.634 217.312 314.472 226.92C313.842 227.519 313.531 227.904 313.219 228.289C313.219 228.289 313.229 228.32 313.03 228.373C312.544 228.825 312.257 229.224 311.97 229.624C311.97 229.624 311.974 229.636 311.967 229.635C311.069 230.475 310.178 231.316 309.263 232.179C307.277 228.175 325.411 205.693 339.52 195.016C340.024 195.438 340.152 195.811 340.28 196.185Z" fill="#E8F8FC"/>
<path d="M340.477 196.08C340.152 195.809 340.024 195.436 339.727 194.95C340.314 194.22 341.072 193.602 342.043 192.988C341.73 193.988 341.202 194.983 340.477 196.08Z" fill="#C0BBCC"/>
<path d="M343.958 192.044C343.959 192.186 343.735 192.293 343.616 192.33C343.547 192.098 343.596 191.83 343.645 191.562C343.749 191.676 343.853 191.789 343.958 192.044Z" fill="#C0BBCC"/>
<path d="M343.315 192.293C343.209 192.676 342.892 193.012 342.395 193.186C342.511 192.765 342.807 192.506 343.315 192.293Z" fill="#C0BBCC"/>
<path d="M295.908 81.6404C296.179 82.3993 296.653 83.159 296.697 83.9428C296.733 84.5865 296.433 85.5301 295.957 85.8367C295.542 86.1043 294.499 85.882 294.038 85.5043C292.58 84.311 291.264 82.9432 289.637 81.3988C291.939 79.4853 293.694 80.6288 295.698 81.7303C295.948 81.6851 295.925 81.6515 295.908 81.6404Z" fill="#EDEDED"/>
<path d="M216.94 275.592C212.474 277.808 209.294 277.577 206.668 275.015C204.405 272.807 203.678 268.994 204.967 266.089C206.271 263.149 209.226 261.204 212.376 261.391C215.626 261.584 218.072 263.099 219.421 266.159C220.852 269.403 220.125 272.33 216.94 275.592Z" fill="#372B55"/>
<path d="M296.771 116.001C295.967 116.046 295.39 115.997 294.812 115.948C294.863 115.559 294.793 115.09 294.986 114.794C295.643 113.791 301.921 112.059 303.616 113.09C301.41 114.029 299.204 114.968 296.771 116.001Z" fill="#625580"/>
<path d="M293.513 111.206C292.944 110.069 292.157 108.804 292.476 107.954C292.706 107.343 294.437 107.013 295.445 107.111C295.874 107.152 296.681 108.953 296.416 109.342C295.84 110.189 294.686 110.642 293.513 111.206Z" fill="#817799"/>
<path d="M322.293 115.867C322.49 116.18 322.677 116.711 322.805 117.456C322.592 117.141 322.438 116.614 322.293 115.867Z" fill="#423366"/>
<path d="M313.422 228.27C313.527 227.904 313.838 227.519 314.358 227.102C314.254 227.463 313.941 227.857 313.422 228.27Z" fill="#211A33"/>
<path d="M312.176 229.608C312.254 229.222 312.541 228.823 313.011 228.371C312.924 228.743 312.655 229.169 312.176 229.608Z" fill="#211A33"/>
<path d="M338.469 198.448C338.474 198.224 338.631 197.926 338.956 197.578C338.956 197.81 338.788 198.092 338.469 198.448Z" fill="#C0BBCC"/>
</g>
<defs>
<clipPath id="clip0_3124_11324">
<rect width="476" height="476" fill="white"/>
</clipPath>
</defs>
</svg>
