<svg width="646" height="362" viewBox="0 0 646 362" fill="none" xmlns="http://www.w3.org/2000/svg">
<path opacity="0.1" d="M109.987 90.1983C224.988 63.9869 237.303 -0.0335054 311.627 1.31567e-05C385.95 0.0335317 394.328 64.5902 463.066 41.7641C531.805 18.938 595.631 36.3006 604.177 135.281C612.723 234.261 577.967 313.164 392.074 277.466C206.18 241.769 232.458 333.844 148.848 321.845C65.2381 309.879 -5.01441 116.41 109.987 90.1983Z" fill="#AFA7D5"/>
<path opacity="0.1" d="M321.082 359.726C400.855 359.726 465.524 351.458 465.524 341.258C465.524 331.058 400.855 322.789 321.082 322.789C241.309 322.789 176.641 331.058 176.641 341.258C176.641 351.458 241.309 359.726 321.082 359.726Z" fill="#D2C8FF"/>
<path d="M300.457 210.969H341.707V335.792H300.457V210.969Z" fill="#2C2244"/>
<path d="M146.191 283.199H495.939C497.723 283.199 499.169 281.758 499.169 279.981V36.1006C499.169 34.3241 497.723 32.8828 495.939 32.8828H146.191C144.408 32.8828 142.961 34.3241 142.961 36.1006V280.015C142.961 281.791 144.408 283.199 146.191 283.199Z" fill="#423366"/>
<path d="M309.578 261.95C309.578 268.285 314.726 273.413 321.085 273.413C327.444 273.413 332.592 268.285 332.592 261.95C332.592 255.615 327.444 250.52 321.085 250.52C314.726 250.486 309.578 255.615 309.578 261.95Z" fill="#184946"/>
<path d="M228.285 320.941H413.876V341.254H228.285V320.941Z" fill="#423366"/>
<path d="M485.945 237.699L155.543 237.699V45.1353L485.945 45.1353V237.699Z" fill="#F6F4FF"/>
<path d="M169.945 59.4609H471.008V77.8961H169.945V59.4609Z" fill="#D2C8FF"/>
<path d="M169.945 77.8984H471.008V191.593H169.945V77.8984Z" fill="#F7F7F7"/>
<path d="M161.23 145.438H300.322V223.569H161.23V145.438Z" fill="#817799"/>
<path d="M161.23 137.695H302.341V145.438H161.23V137.695Z" fill="#D3D3D3"/>
<path d="M225.024 155.627H279.396V156.565H225.024V155.627ZM167.523 152.141H291.172V153.079H167.523V152.141ZM167.523 155.627H221.895V156.565H167.523V155.627ZM282.02 155.627H291.172V156.565H282.02V155.627Z" fill="white"/>
<path d="M233.645 164.461H179.273V163.522H233.645V164.461Z" fill="white"/>
<path d="M291.145 167.965L167.496 167.965V167.026L291.145 167.026V167.965Z" fill="white"/>
<path d="M291.148 164.461H236.777V163.522H291.148V164.461Z" fill="white"/>
<path d="M176.637 164.461H167.485V163.522H176.637V164.461Z" fill="white"/>
<path d="M167.523 159.117H291.172V160.056H167.523V159.117ZM225.024 175.106H279.396V176.044H225.024V175.106ZM167.523 171.62H291.172V172.558H167.523V171.62ZM167.523 175.106H221.895V176.044H167.523V175.106ZM282.02 175.106H291.172V176.044H282.02V175.106Z" fill="white"/>
<path d="M233.645 183.961H179.273V183.022H233.645V183.961Z" fill="white"/>
<path d="M291.145 187.438L167.496 187.437V186.499L291.145 186.499V187.438Z" fill="white"/>
<path d="M291.148 183.961H236.777V183.022H291.148V183.961Z" fill="white"/>
<path d="M176.637 183.961H167.485V183.022H176.637V183.961Z" fill="white"/>
<path d="M167.523 178.586H291.172V179.524H167.523V178.586Z" fill="white"/>
<path d="M297.191 145.438H302.306V223.569H297.191V145.438Z" fill="#929CAC"/>
<path d="M312.672 110.75H471.009V129.185H312.672V110.75Z" fill="#817799"/>
<path d="M312.672 129.18H471.009V223.534H312.672V129.18Z" fill="#F7F7F7"/>
<path d="M301.363 146.547H298.133C297.595 146.547 297.191 146.983 297.191 147.485V151.206C297.191 151.742 297.629 152.144 298.133 152.144H301.363C301.902 152.144 302.306 151.709 302.306 151.206V147.485C302.339 146.983 301.902 146.547 301.363 146.547Z" fill="#E9F8FF"/>
<path d="M358.359 248.195L371.25 231.39L414.853 264.584L401.962 281.389L358.359 248.195Z" fill="#FFD1AB"/>
<path opacity="0.08" d="M358.359 248.195L371.25 231.39L414.853 264.584L401.962 281.389L358.359 248.195Z" fill="black"/>
<path d="M485.003 324.764L478.644 333.043C474.539 338.406 466.834 339.445 461.451 335.322L392.309 282.698L413.573 255.012L482.715 307.636C488.098 311.725 489.108 319.401 485.003 324.764Z" fill="#FFD1AB"/>
<path d="M286.058 282.127C344.796 282.127 392.412 234.69 392.412 176.175C392.412 117.659 344.796 70.2227 286.058 70.2227C227.32 70.2227 179.703 117.659 179.703 176.175C179.703 234.69 227.32 282.127 286.058 282.127Z" fill="#FFD1AB"/>
<mask id="mask0_3184_10066" style="mask-type:luminance" maskUnits="userSpaceOnUse" x="198" y="89" width="176" height="176">
<path d="M286.057 264.398C334.612 264.398 373.974 225.186 373.974 176.814C373.974 128.443 334.612 89.2305 286.057 89.2305C237.502 89.2305 198.141 128.443 198.141 176.814C198.141 225.186 237.502 264.398 286.057 264.398Z" fill="white"/>
</mask>
<g mask="url(#mask0_3184_10066)">
<path d="M443.098 298.879L84.8705 298.879V70.3496L443.098 70.3496V298.879Z" fill="#F6F4FF"/>
<path d="M100.469 68.6836H426.867V216.936H100.469V68.6836Z" fill="#F7F7F7"/>
<path d="M94.918 134.879H342.08V273.679H94.918V134.879Z" fill="#D2C8FF"/>
<path d="M94.918 121.176H345.647V134.918H94.918V121.176Z" fill="#D3D3D3"/>
<path d="M208.302 153.013H304.899V154.689H208.302V153.013ZM106.086 146.812H325.793V148.488H106.086V146.812ZM106.086 153.013H202.683V154.689H106.086V153.013ZM309.576 153.013H325.827V154.689H309.576V153.013Z" fill="white"/>
<path d="M223.613 168.73H127.016V167.055H223.613V168.73Z" fill="white"/>
<path d="M325.82 174.961L106.113 174.961V173.285L325.82 173.285V174.961Z" fill="white"/>
<path d="M325.82 168.73H229.223V167.055H325.82V168.73Z" fill="white"/>
<path d="M106.086 159.25H325.793V160.926H106.086V159.25ZM208.302 187.64H304.899V189.316H208.302V187.64ZM106.086 181.406H325.793V183.082H106.086V181.406ZM106.086 187.64H202.683V189.316H106.086V187.64ZM309.576 187.64H325.827V189.316H309.576V187.64Z" fill="white"/>
<path d="M223.613 203.344H127.016V201.668H223.613V203.344Z" fill="white"/>
<path d="M325.82 209.574L106.113 209.574V207.898L325.82 207.898V209.574Z" fill="white"/>
<path d="M325.82 203.344H229.223V201.668H325.82V203.344Z" fill="white"/>
<path d="M106.086 193.84H325.793V195.516H106.086V193.84Z" fill="white"/>
<path d="M336.562 134.879H345.681V273.679H336.562V134.879Z" fill="#F6F4FF"/>
<path d="M344.707 136.859H337.473C336.935 136.859 336.531 137.295 336.531 137.798V145.842C336.531 146.379 336.969 146.781 337.473 146.781H344.707C345.246 146.781 345.649 146.345 345.649 145.842V137.798C345.649 137.295 345.246 136.859 344.707 136.859Z" fill="#F7F7F7"/>
</g>
<path d="M181.001 68.9134C181.045 72.4254 183.691 74.715 187.025 74.715C190.027 74.715 192.961 72.4696 193.005 68.9134C193.049 65.2901 190.182 63 187.025 63C183.824 63.0002 180.956 65.2901 181.001 68.9134ZM184.89 71.0793C185.451 71.6128 186.214 71.9363 187.052 71.9231C188.683 71.8971 190.022 70.5752 190.067 68.9444C190.088 68.1947 189.839 67.5042 189.411 66.9612C190.856 68.5453 190.937 70.3975 189.769 71.5602C188.532 72.791 186.534 72.6908 184.89 71.0793ZM184.228 66.114C185.366 64.9828 187.177 65.0509 188.767 66.3511C188.245 65.9826 187.603 65.7734 186.911 65.7937C185.247 65.8425 183.916 67.2343 183.938 68.8984C183.948 69.6966 184.263 70.4212 184.773 70.9611C183.179 69.3139 183.028 67.3077 184.228 66.114Z" fill="#423366"/>
</svg>
