<svg width="91" height="89" viewBox="0 0 91 89" fill="none" xmlns="http://www.w3.org/2000/svg">
<path d="M0 61.8603C0 65.642 1.25801 69.1986 2.92724 72.2582C2.9301 72.261 2.93009 72.261 2.93439 72.2653C2.94155 72.2752 2.94442 72.2851 2.95158 72.2978C3.64076 73.6131 4.45747 74.9213 5.40885 76.2083C6.3588 77.4981 7.43914 78.7639 8.64986 79.9971C8.64986 79.9971 9.00807 80.3666 9.63707 80.9499C9.60698 80.9273 9.58119 80.9046 9.55111 80.8777C11.004 82.2681 12.5084 83.4758 14.0344 84.4994C14.0472 84.5093 14.0573 84.5192 14.0702 84.5263C16.2323 86.0243 18.8156 87.4542 21.3775 88.0206C21.3775 88.0206 21.3847 88.0206 21.3947 88.0234C21.3947 88.0234 21.3947 88.0234 21.3976 88.0234C21.9234 88.2032 33.7254 92.0713 41.5256 83.0496C41.5256 83.0496 42.7536 81.437 43.9686 78.8489C43.9758 78.829 43.9858 78.8092 43.9958 78.7894C43.9958 78.7894 43.9987 78.7894 43.9987 78.7823C44.0746 78.6648 45.059 77.0677 45.4387 73.8807C45.4387 73.8779 45.4387 73.8708 45.4415 73.868C45.4415 73.868 45.4415 73.868 45.4415 73.8651C45.5375 73.119 45.5877 72.3629 45.5877 71.5941V61.7485C45.5877 66.0937 47.0778 70.7531 50.1139 75.213C50.1139 75.213 50.1211 75.2229 50.1311 75.2385C50.1311 75.2413 50.134 75.2456 50.1383 75.2484C50.1411 75.2555 50.1483 75.264 50.1512 75.2711C50.1583 75.281 50.1641 75.288 50.1712 75.298C50.1942 75.3334 50.2271 75.3801 50.2644 75.4324C50.2744 75.4452 50.2815 75.4551 50.2873 75.465C50.3102 75.4976 50.3374 75.5344 50.3604 75.5698C50.3732 75.5896 50.3833 75.6052 50.3962 75.6222C50.4664 75.7241 50.548 75.8374 50.6412 75.9662C50.6842 76.0285 50.73 76.0908 50.7802 76.1588C51.2272 76.7733 51.8834 77.6412 52.6772 78.5968C52.809 78.754 52.9423 78.9111 53.0784 79.0711C53.4366 79.486 53.8134 79.9149 54.2103 80.3411C54.7075 80.8706 55.2333 81.4044 55.7764 81.9084C56.2134 82.3134 56.6604 82.7027 57.1175 83.0666C58.0287 83.7858 58.9687 84.3989 59.8986 84.801C64.2128 87.5859 68.7089 88.9437 72.9543 88.9437C77.8287 88.9437 82.365 87.1541 85.8983 83.6796C92.6368 77.0536 92.7686 66.9148 85.8754 57.6652C85.8754 57.6652 85.8754 57.6652 85.8754 57.6624C84.8122 56.2352 83.5815 54.8293 82.1802 53.4574C82.2432 53.5225 82.3063 53.5919 82.3693 53.6599C79.816 51.0618 77.3201 49.1972 75.019 47.8521C74.9001 47.787 74.7869 47.7176 74.6708 47.6553C74.2467 47.4132 73.8298 47.1938 73.4228 46.9885C73.0188 46.786 72.6219 46.5991 72.2336 46.4292C71.9986 46.3216 71.7636 46.2225 71.5344 46.1277C67.9954 44.6821 65.2558 44.4726 64.0207 44.4655C63.7199 44.4655 63.5078 44.4754 63.3946 44.4853C63.3645 44.4853 63.3445 44.4881 63.3287 44.4881L63.2728 44.4556H73.1076C77.9219 44.423 82.4051 42.6292 85.8983 39.1944C93.3188 31.8944 92.7328 20.3355 83.56 10.395C83.56 10.395 83.5528 10.3851 83.5428 10.3724C83.5356 10.3653 83.5327 10.3624 83.5227 10.3525C83.5227 10.3497 83.5155 10.3455 83.5127 10.3426C83.5127 10.3398 83.5098 10.3355 83.5055 10.3327C83.3006 10.0977 82.4954 9.20005 81.3663 8.1311C81.2933 8.06598 81.2245 7.99659 81.1514 7.92863C80.3175 7.15276 79.3231 6.30611 78.2772 5.56988C77.9462 5.33485 77.6081 5.11114 77.2699 4.90585C77.2628 4.90301 77.2599 4.90302 77.257 4.89878C72.5187 1.62963 67.5756 0 62.9762 0C58.3339 0 54.0427 1.66218 50.6684 4.97664C47.307 8.28826 45.5862 12.5966 45.5862 17.2632V27.1117C45.5862 21.723 43.1691 15.8757 38.2388 10.4941C38.2388 10.4913 38.2316 10.487 38.2216 10.4743C38.2116 10.4615 38.1915 10.4375 38.1657 10.4092C38.1586 10.4021 38.1528 10.3964 38.1457 10.3893C38.1385 10.3794 38.1328 10.3738 38.1256 10.3667C38.1156 10.3596 38.1055 10.3469 38.0984 10.337C38.0855 10.3242 38.0726 10.3101 38.0583 10.2945C38.031 10.2648 37.9981 10.2322 37.9651 10.1996C37.9322 10.16 37.8921 10.1203 37.8519 10.075C37.8419 10.068 37.8319 10.0552 37.8218 10.0453C37.8118 10.0354 37.8018 10.0227 37.7889 10.0099C37.7617 9.98301 37.733 9.95045 37.7029 9.92213C37.6857 9.90231 37.67 9.88531 37.6499 9.86691C37.627 9.84142 37.6041 9.81735 37.5768 9.79187C36.6169 8.78663 34.7198 6.90641 32.6637 5.40138C32.4918 5.27679 32.3199 5.15645 32.1465 5.03469C31.6264 4.6779 31.1034 4.35084 30.5833 4.07192C30.5804 4.06909 30.5761 4.0691 30.5733 4.06485C30.5704 4.06202 30.5632 4.05776 30.5561 4.05493C21.3947 -1.65085 11.6731 -1.32096 5.25555 4.97805C-1.57608 11.7018 -1.61907 22.5414 5.73267 32.1648C5.73267 32.1676 5.73267 32.1676 5.73267 32.1676C5.73983 32.1747 5.7427 32.1804 5.74986 32.1874C7.05085 34.1469 9.11123 36.0979 10.7332 37.484C10.736 37.484 10.736 37.484 10.736 37.4869C10.7389 37.4869 10.7389 37.4869 10.7389 37.4869C10.7647 37.5095 10.7919 37.5322 10.8177 37.5562C10.9008 37.6256 10.9839 37.6936 11.0627 37.763C11.0699 37.77 11.0799 37.7757 11.0856 37.7828C11.1028 37.7955 11.1157 37.8054 11.1286 37.8182C11.6516 38.2627 12.1746 38.679 12.7047 39.074C12.7119 39.0768 12.7147 39.0811 12.7219 39.0839C12.7477 39.1066 12.7778 39.1292 12.805 39.149C12.8552 39.1859 12.8981 39.2184 12.9368 39.2439C12.954 39.2609 12.9669 39.2708 12.9827 39.2807C12.9999 39.2935 13.0156 39.3076 13.0285 39.3161C13.0586 39.3359 13.0787 39.3558 13.1016 39.3685C13.1145 39.3812 13.1288 39.3911 13.1417 39.3982C13.1589 39.411 13.1718 39.4209 13.1775 39.428C13.1804 39.428 13.1804 39.428 13.1804 39.428C13.1833 39.435 13.1904 39.435 13.1904 39.4379C17.7969 42.7495 22.6699 44.3947 27.2563 44.457H16.7108C16.6378 44.4598 16.5618 44.4669 16.483 44.4697C16.4042 44.4726 16.3211 44.4796 16.2352 44.4853C16.0661 44.498 15.8841 44.515 15.6921 44.5349C15.3081 44.5773 14.884 44.6368 14.4312 44.7175C13.5243 44.8817 12.4869 45.1366 11.3951 45.5387C11.12 45.6406 10.8421 45.7482 10.5641 45.8686C10.001 46.1078 9.43217 46.3853 8.85905 46.7096C7.42481 47.518 5.97767 48.6139 4.65089 50.0962C4.61077 50.1387 4.5721 50.1812 4.53484 50.2236C4.51478 50.2435 4.49472 50.2661 4.47896 50.2859C3.36997 51.5234 2.4759 52.8811 1.79388 54.3267C1.79388 54.3366 1.79101 54.3395 1.78671 54.3494C0.520105 56.8965 0 59.4251 0 61.8603ZM49.9219 66.7648C49.9219 57.5378 57.9843 50.0552 67.928 50.0552C77.8717 50.0552 85.9313 57.5378 85.9313 66.7648C85.9313 75.9917 77.8717 83.4715 67.928 83.4715C57.9843 83.4715 49.9219 75.9917 49.9219 66.7648ZM49.9219 23.49C49.9219 14.263 57.9843 6.78323 67.928 6.78323C77.8717 6.78323 85.9313 14.263 85.9313 23.49C85.9313 32.7169 77.8717 40.1996 67.928 40.1996C57.9843 40.1996 49.9219 32.7169 49.9219 23.49ZM41.6317 23.49C41.6317 32.7169 33.5721 40.1996 23.6285 40.1996C13.6848 40.1996 5.62521 32.7169 5.62521 23.49C5.62521 14.263 13.6848 6.78323 23.6285 6.78323C33.5721 6.78323 41.6317 14.263 41.6317 23.49ZM5.62521 66.7648C5.62521 57.5378 13.6848 50.0552 23.6285 50.0552C33.5721 50.0552 41.6317 57.5378 41.6317 66.7648C41.6317 75.9917 33.5721 83.4715 23.6285 83.4715C13.6848 83.4715 5.62521 75.9917 5.62521 66.7648Z" fill="#423366" fill-opacity="0.3"/>
</svg>
