<svg width="155" height="27" viewBox="0 0 155 27" fill="none" xmlns="http://www.w3.org/2000/svg">
<g id="Group">
<path id="Vector" d="M0 0H6.18883L8.24374 16.6124C8.28579 16.9537 8.76421 16.9961 8.86585 16.6675L14.0166 0H18.6881L23.6385 16.7365C23.7348 17.0627 24.2067 17.032 24.2602 16.6961L26.9147 0H33.064L27.752 26.353H21.5231L16.5879 12.7908C16.4867 12.512 16.0932 12.5103 15.9891 12.7879L10.9024 26.353H4.63315L0 0Z" fill="#423366"/>
<path id="Vector_2" d="M55.9184 0H61.748V13.8554H61.8464C62.4905 13.8554 63.0987 13.559 63.4959 13.0524L68.9353 6.10923H75.1641L67.8078 15.1086C67.7184 15.218 67.7115 15.3731 67.7907 15.4898L75.1637 26.353H68.9349L63.482 17.6713C63.0987 17.061 62.4285 16.6904 61.7076 16.6904V26.353H55.918V0H55.9184Z" fill="#423366"/>
<path id="Vector_3" d="M77.4805 0H82.8708V10.3823C83.9289 8.07271 84.947 5.7896 89.5389 5.70959C94.0908 5.58958 97.4051 8.06536 97.4051 15.3323V26.3526H91.5755V15.9311C91.5755 12.5373 89.5789 10.8999 87.5028 10.8999C85.3866 10.8999 83.3501 12.3772 83.3501 15.9707V26.3522H77.4805V0Z" fill="#423366"/>
<g id="Group_2">
<path id="Vector_4" d="M102.69 5.75908C104.036 5.75908 105.126 4.66837 105.126 3.3229C105.126 1.97744 104.036 0.886719 102.69 0.886719C101.345 0.886719 100.254 1.97744 100.254 3.3229C100.254 4.66837 101.345 5.75908 102.69 5.75908Z" fill="#423366"/>
<g id="Group_3">
<path id="Vector_5" d="M102.664 7.38477C104.276 7.38477 105.582 8.69307 105.579 10.3051L105.544 26.3513H99.7148L99.7491 10.2937C99.7528 8.68613 101.057 7.38477 102.664 7.38477Z" fill="#423366"/>
</g>
</g>
<path id="Vector_6" d="M107.895 6.10938H114.083L119.01 18.7826C119.116 19.0565 119.504 19.0532 119.606 18.7781L124.305 6.10938H130.494L121.989 26.3532H116.399L107.895 6.10938Z" fill="#423366"/>
<g id="Group_4">
<g id="Group_5">
<path id="Vector_7" d="M150.657 10.3436L139.589 20.8308C140.235 21.0835 140.909 21.21 141.612 21.21C143.184 21.21 144.894 20.3508 145.961 19.1988C146.439 18.6657 147.029 18.3844 147.731 18.3563C148.433 18.3285 149.044 18.5461 149.564 19.0094C150.083 19.4727 150.364 20.0626 150.406 20.779C150.448 21.4954 150.23 22.106 149.753 22.6118C148.77 23.707 147.208 24.841 145.846 25.4444C144.483 26.0485 143.072 26.3502 141.612 26.3502C138.718 26.3502 136.247 25.3252 134.197 23.2747C132.146 21.2247 131.121 18.753 131.121 15.8597C131.121 12.9671 132.146 10.495 134.197 8.44458C136.247 6.39456 138.718 5.36914 141.612 5.36914C143.313 5.36914 144.802 5.79858 146.211 6.526C147.716 7.30241 149.036 8.39436 150.118 9.69614L150.657 10.3436ZM136.219 15.8588C136.219 16.196 136.261 16.5328 136.345 16.87L142.96 10.6767C142.51 10.5648 142.061 10.5081 141.612 10.5081C140.122 10.5081 138.852 11.0281 137.799 12.067C136.745 13.1067 136.219 14.3705 136.219 15.8588Z" fill="#423366"/>
</g>
<path id="Vector_8" d="M152.427 18.3312C153.679 18.3312 154.695 17.3162 154.695 16.0641C154.695 14.8119 153.679 13.7969 152.427 13.7969C151.175 13.7969 150.16 14.8119 150.16 16.0641C150.16 17.3162 151.175 18.3312 152.427 18.3312Z" fill="#423366"/>
</g>
<path id="Vector_9" d="M32.0947 15.9267C32.1739 22.2201 36.9156 26.3229 42.8901 26.3229C48.2691 26.3229 53.5268 22.2992 53.606 15.9267C53.6852 9.43378 48.5475 5.33008 42.8901 5.33008C37.1544 5.33049 32.0143 9.43378 32.0947 15.9267ZM39.0644 19.808C40.0694 20.764 41.4365 21.3436 42.9391 21.32C45.8619 21.2734 48.2609 18.9046 48.3417 15.9822C48.3789 14.6388 47.9335 13.4016 47.1665 12.4284C49.7554 15.2671 49.9007 18.5862 47.8074 20.6697C45.5916 22.8752 42.0096 22.6956 39.0644 19.808ZM37.8786 10.9103C39.9172 8.88311 43.1632 9.00517 46.0125 11.3352C45.0769 10.6747 43.9257 10.3 42.6856 10.3363C39.7049 10.4237 37.3189 12.9178 37.3577 15.8998C37.3765 17.3301 37.9418 18.6286 38.8542 19.5961C35.9988 16.6444 35.7285 13.0493 37.8786 10.9103Z" fill="#423366"/>
</g>
</svg>
