<svg width="46" height="46" viewBox="0 0 46 46" fill="none" xmlns="http://www.w3.org/2000/svg">
<g id="Paystack svg" opacity="0.4" clip-path="url(#clip0_2946_11668)">
<g id="Group">
<g id="Group_2">
<path id="Vector" d="M41.1525 0H2.3722C1.13453 0 0 1.14221 0 2.4921V6.85327C0 8.20316 1.13453 9.34537 2.3722 9.34537H41.1525C42.4933 9.34537 43.5247 8.20316 43.6278 6.85327V2.4921C43.6278 1.14221 42.4933 0 41.1525 0ZM41.1525 24.5056H2.3722C1.75336 24.5056 1.13453 24.8172 0.618834 25.2325C0.206278 25.6479 0 26.2709 0 26.9977V31.3589C0 32.7088 1.13453 33.851 2.3722 33.851H41.1525C42.4933 33.851 43.5247 32.8126 43.6278 31.3589V26.9977C43.6278 25.544 42.4933 24.5056 41.1525 24.5056ZM24.2377 36.7585H2.3722C1.75336 36.7585 1.13453 36.9661 0.721973 37.4853C0.309417 37.9007 0 38.5237 0 39.2506V43.6117C0 44.9616 1.13453 46.1038 2.3722 46.1038H24.1345C25.4753 46.1038 26.5067 44.9616 26.5067 43.6117V39.1467C26.6099 37.7968 25.5785 36.7585 24.2377 36.7585ZM43.6278 12.2528H2.3722C1.75336 12.2528 1.13453 12.4605 0.721973 12.9797C0.309417 13.395 0 14.0181 0 14.7449V19.1061C0 20.456 1.13453 21.5982 2.3722 21.5982H43.5247C44.8655 21.5982 45.8969 20.456 45.8969 19.1061V14.7449C46 13.395 44.9686 12.2528 43.6278 12.2528Z" fill="#00C3F7"/>
</g>
</g>
</g>
<defs>
<clipPath id="clip0_2946_11668">
<rect width="46" height="46" fill="white"/>
</clipPath>
</defs>
</svg>
