<svg width="1264" height="1024" viewBox="0 0 1264 1024" fill="none" xmlns="http://www.w3.org/2000/svg">
<g opacity="0.4">
<rect x="839.906" y="1287.99" width="167.388" height="861.713" transform="rotate(-115.82 839.906 1287.99)" fill="url(#paint0_linear_924_2313)"/>
<rect x="277.906" y="167.991" width="167.388" height="861.713" transform="rotate(-115.82 277.906 167.991)" fill="url(#paint1_linear_924_2313)"/>
<rect x="359.906" y="333.991" width="167.388" height="861.713" transform="rotate(-115.82 359.906 333.991)" fill="url(#paint2_linear_924_2313)"/>
<rect x="441.906" y="499.991" width="167.388" height="861.713" transform="rotate(-115.82 441.906 499.991)" fill="url(#paint3_linear_924_2313)"/>
<rect x="523.906" y="665.991" width="167.388" height="861.713" transform="rotate(-115.82 523.906 665.991)" fill="url(#paint4_linear_924_2313)"/>
<rect x="605.906" y="831.99" width="167.388" height="861.713" transform="rotate(-115.82 605.906 831.99)" fill="url(#paint5_linear_924_2313)"/>
<rect x="687.906" y="997.99" width="167.388" height="861.713" transform="rotate(-115.82 687.906 997.99)" fill="url(#paint6_linear_924_2313)"/>
<rect x="769.906" y="1163.99" width="167.388" height="861.713" transform="rotate(-115.82 769.906 1163.99)" fill="url(#paint7_linear_924_2313)"/>
<rect width="212.584" height="746.735" transform="matrix(-0.892046 -0.451945 -0.451945 0.892046 527.117 -145.923)" fill="url(#paint8_linear_924_2313)"/>
<rect width="212.584" height="746.735" transform="matrix(-0.892046 -0.451945 -0.451945 0.892046 693.117 -57.9229)" fill="url(#paint9_linear_924_2313)"/>
<rect width="212.584" height="746.735" transform="matrix(-0.892046 -0.451945 -0.451945 0.892046 901.117 49.0771)" fill="url(#paint10_linear_924_2313)"/>
<rect width="212.584" height="746.735" transform="matrix(-0.892046 -0.451945 -0.451945 0.892046 1109.12 156.077)" fill="url(#paint11_linear_924_2313)"/>
<rect width="212.584" height="746.735" transform="matrix(-0.892046 -0.451945 -0.451945 0.892046 1317.12 263.077)" fill="url(#paint12_linear_924_2313)"/>
<rect width="212.584" height="746.735" transform="matrix(-0.892046 -0.451945 -0.451945 0.892046 1525.12 370.077)" fill="url(#paint13_linear_924_2313)"/>
<rect width="212.584" height="746.735" transform="matrix(-0.892046 -0.451945 -0.451945 0.892046 1733.12 477.077)" fill="url(#paint14_linear_924_2313)"/>
</g>
<defs>
<linearGradient id="paint0_linear_924_2313" x1="923.6" y1="1287.99" x2="923.6" y2="2149.7" gradientUnits="userSpaceOnUse">
<stop stop-color="white" stop-opacity="0.19"/>
<stop offset="1" stop-color="white" stop-opacity="0"/>
</linearGradient>
<linearGradient id="paint1_linear_924_2313" x1="361.6" y1="167.991" x2="361.6" y2="1029.7" gradientUnits="userSpaceOnUse">
<stop stop-color="white" stop-opacity="0.19"/>
<stop offset="1" stop-color="white" stop-opacity="0"/>
</linearGradient>
<linearGradient id="paint2_linear_924_2313" x1="443.6" y1="333.991" x2="443.6" y2="1195.7" gradientUnits="userSpaceOnUse">
<stop stop-color="white" stop-opacity="0.19"/>
<stop offset="1" stop-color="white" stop-opacity="0"/>
</linearGradient>
<linearGradient id="paint3_linear_924_2313" x1="525.6" y1="499.991" x2="525.6" y2="1361.7" gradientUnits="userSpaceOnUse">
<stop stop-color="white" stop-opacity="0.19"/>
<stop offset="1" stop-color="white" stop-opacity="0"/>
</linearGradient>
<linearGradient id="paint4_linear_924_2313" x1="607.6" y1="665.991" x2="607.6" y2="1527.7" gradientUnits="userSpaceOnUse">
<stop stop-color="white" stop-opacity="0.19"/>
<stop offset="1" stop-color="white" stop-opacity="0"/>
</linearGradient>
<linearGradient id="paint5_linear_924_2313" x1="689.6" y1="831.99" x2="689.6" y2="1693.7" gradientUnits="userSpaceOnUse">
<stop stop-color="white" stop-opacity="0.19"/>
<stop offset="1" stop-color="white" stop-opacity="0"/>
</linearGradient>
<linearGradient id="paint6_linear_924_2313" x1="771.6" y1="997.99" x2="771.6" y2="1859.7" gradientUnits="userSpaceOnUse">
<stop stop-color="white" stop-opacity="0.19"/>
<stop offset="1" stop-color="white" stop-opacity="0"/>
</linearGradient>
<linearGradient id="paint7_linear_924_2313" x1="853.6" y1="1163.99" x2="853.6" y2="2025.7" gradientUnits="userSpaceOnUse">
<stop stop-color="white" stop-opacity="0.19"/>
<stop offset="1" stop-color="white" stop-opacity="0"/>
</linearGradient>
<linearGradient id="paint8_linear_924_2313" x1="106.292" y1="0" x2="106.292" y2="746.735" gradientUnits="userSpaceOnUse">
<stop stop-color="white" stop-opacity="0.19"/>
<stop offset="1" stop-color="white" stop-opacity="0"/>
</linearGradient>
<linearGradient id="paint9_linear_924_2313" x1="106.292" y1="0" x2="106.292" y2="746.735" gradientUnits="userSpaceOnUse">
<stop stop-color="white" stop-opacity="0.19"/>
<stop offset="1" stop-color="white" stop-opacity="0"/>
</linearGradient>
<linearGradient id="paint10_linear_924_2313" x1="106.292" y1="0" x2="106.292" y2="746.735" gradientUnits="userSpaceOnUse">
<stop stop-color="white" stop-opacity="0.19"/>
<stop offset="1" stop-color="white" stop-opacity="0"/>
</linearGradient>
<linearGradient id="paint11_linear_924_2313" x1="106.292" y1="0" x2="106.292" y2="746.735" gradientUnits="userSpaceOnUse">
<stop stop-color="white" stop-opacity="0.19"/>
<stop offset="1" stop-color="white" stop-opacity="0"/>
</linearGradient>
<linearGradient id="paint12_linear_924_2313" x1="106.292" y1="0" x2="106.292" y2="746.735" gradientUnits="userSpaceOnUse">
<stop stop-color="white" stop-opacity="0.19"/>
<stop offset="1" stop-color="white" stop-opacity="0"/>
</linearGradient>
<linearGradient id="paint13_linear_924_2313" x1="106.292" y1="0" x2="106.292" y2="746.735" gradientUnits="userSpaceOnUse">
<stop stop-color="white" stop-opacity="0.19"/>
<stop offset="1" stop-color="white" stop-opacity="0"/>
</linearGradient>
<linearGradient id="paint14_linear_924_2313" x1="106.292" y1="0" x2="106.292" y2="746.735" gradientUnits="userSpaceOnUse">
<stop stop-color="white" stop-opacity="0.19"/>
<stop offset="1" stop-color="white" stop-opacity="0"/>
</linearGradient>
</defs>
</svg>
