<svg width="179" height="100" viewBox="0 0 179 100" fill="none" xmlns="http://www.w3.org/2000/svg">
<path id="Vector" d="M0.464844 138.354C0.464844 146.812 3.26921 154.766 6.99025 161.609C6.99664 161.616 6.99661 161.616 7.0062 161.625C7.02216 161.647 7.02855 161.669 7.04452 161.698C8.58085 164.64 10.4014 167.566 12.5223 170.444C14.6399 173.329 17.0482 176.16 19.7472 178.918C19.7472 178.918 20.5457 179.744 21.9478 181.049C21.8808 180.998 21.8233 180.948 21.7562 180.887C24.9949 183.997 28.3486 186.698 31.7503 188.987C31.779 189.01 31.8014 189.032 31.8301 189.048C36.6499 192.398 42.4087 195.596 48.1196 196.863C48.1196 196.863 48.1356 196.863 48.158 196.869C48.158 196.869 48.158 196.869 48.1644 196.869C49.3366 197.271 75.6457 205.922 93.034 185.745C93.034 185.745 95.7713 182.138 98.4798 176.35C98.4958 176.305 98.5182 176.261 98.5405 176.217C98.5405 176.217 98.5469 176.217 98.5469 176.201C98.7161 175.938 100.91 172.366 101.757 165.238C101.757 165.232 101.757 165.216 101.763 165.21C101.763 165.21 101.763 165.21 101.763 165.203C101.977 163.535 102.089 161.844 102.089 160.124V138.104C102.089 147.822 105.411 158.243 112.179 168.218C112.179 168.218 112.195 168.24 112.217 168.275C112.217 168.281 112.224 168.291 112.233 168.297C112.24 168.313 112.256 168.332 112.262 168.348C112.278 168.37 112.291 168.386 112.307 168.408C112.358 168.487 112.431 168.592 112.514 168.709C112.537 168.737 112.553 168.759 112.565 168.782C112.617 168.854 112.677 168.937 112.728 169.016C112.757 169.06 112.779 169.095 112.808 169.133C112.965 169.361 113.147 169.614 113.354 169.903C113.45 170.042 113.552 170.181 113.664 170.333C114.661 171.708 116.124 173.649 117.893 175.786C118.187 176.138 118.484 176.489 118.787 176.847C119.586 177.775 120.426 178.734 121.311 179.687C122.419 180.872 123.591 182.065 124.802 183.193C125.776 184.098 126.772 184.969 127.791 185.783C129.823 187.391 131.918 188.763 133.991 189.662C143.608 195.891 153.631 198.927 163.095 198.927C173.961 198.927 184.073 194.925 191.95 187.154C206.971 172.334 207.265 149.659 191.899 128.971C191.899 128.971 191.899 128.971 191.899 128.965C189.529 125.773 186.785 122.629 183.661 119.56C183.802 119.706 183.942 119.861 184.083 120.013C178.391 114.202 172.827 110.032 167.697 107.024C167.432 106.878 167.18 106.723 166.921 106.584C165.976 106.042 165.046 105.551 164.139 105.092C163.239 104.639 162.354 104.221 161.488 103.841C160.964 103.601 160.441 103.379 159.93 103.167C152.04 99.9339 145.933 99.4653 143.18 99.4494C142.509 99.4494 142.037 99.4716 141.784 99.4938C141.717 99.4938 141.673 99.5001 141.637 99.5001L141.513 99.4272H163.437C174.169 99.3544 184.163 95.3424 191.95 87.6603C208.492 71.3334 207.185 45.4815 186.737 23.249C186.737 23.249 186.721 23.2268 186.699 23.1983C186.683 23.1825 186.676 23.1762 186.654 23.154C186.654 23.1477 186.638 23.1382 186.632 23.1318C186.632 23.1255 186.625 23.116 186.616 23.1096C186.159 22.584 184.364 20.5764 181.847 18.1856C181.684 18.04 181.531 17.8848 181.368 17.7328C179.509 15.9975 177.292 14.1039 174.961 12.4573C174.223 11.9317 173.469 11.4313 172.715 10.9722C172.699 10.9659 172.693 10.9659 172.687 10.9564C162.124 3.64476 151.105 0 140.852 0C130.503 0 120.937 3.71757 113.415 11.1305C105.922 18.5371 102.086 28.173 102.086 38.6101V60.6367C102.086 48.5847 96.6975 35.5068 85.7069 23.4706C85.7069 23.4643 85.6909 23.4548 85.6686 23.4263C85.6462 23.3978 85.6015 23.344 85.544 23.2807C85.528 23.2648 85.5153 23.2522 85.4993 23.2363C85.4833 23.2142 85.4705 23.2015 85.4546 23.1857C85.4322 23.1698 85.4099 23.1413 85.3939 23.1192C85.3652 23.0907 85.3364 23.059 85.3045 23.0242C85.2438 22.9577 85.1703 22.8848 85.0968 22.812C85.0234 22.7233 84.934 22.6347 84.8445 22.5333C84.8222 22.5175 84.7998 22.489 84.7774 22.4669C84.7551 22.4447 84.7327 22.4162 84.704 22.3877C84.6433 22.3275 84.5794 22.2547 84.5123 22.1914C84.474 22.147 84.4389 22.109 84.3942 22.0679C84.3431 22.0109 84.292 21.957 84.2313 21.9C82.0913 19.6518 77.8624 15.4466 73.279 12.0805C72.8957 11.8018 72.5124 11.5327 72.1259 11.2604C70.9665 10.4624 69.8007 9.73088 68.6412 9.10707C68.6348 9.10074 68.6253 9.10076 68.6189 9.09126C68.6125 9.08493 68.5965 9.07541 68.5806 9.06907C48.158 -3.69222 26.4866 -2.9544 12.1805 11.1337C-3.04856 26.1717 -3.1444 50.415 13.2441 71.9382C13.2441 71.9446 13.2441 71.9446 13.2441 71.9446C13.2601 71.9604 13.2665 71.9731 13.2825 71.9889C16.1826 76.3715 20.7756 80.735 24.3913 83.835C24.3977 83.835 24.3977 83.835 24.3977 83.8414C24.4041 83.8414 24.404 83.8414 24.404 83.8414C24.4615 83.892 24.5222 83.9427 24.5797 83.9965C24.765 84.1517 24.9502 84.3037 25.1259 84.4589C25.1418 84.4747 25.1642 84.4874 25.177 84.5032C25.2153 84.5317 25.2441 84.5538 25.2728 84.5823C26.4386 85.5766 27.6045 86.5076 28.7863 87.3911C28.8022 87.3974 28.8086 87.4069 28.8246 87.4133C28.8821 87.4639 28.9491 87.5146 29.0098 87.5589C29.1216 87.6413 29.2174 87.7141 29.3037 87.7711C29.342 87.8091 29.3707 87.8313 29.4059 87.8534C29.4442 87.8819 29.4794 87.9136 29.5081 87.9326C29.5752 87.9769 29.6199 88.0213 29.671 88.0498C29.6997 88.0783 29.7317 88.1004 29.7604 88.1162C29.7987 88.1448 29.8275 88.1669 29.8403 88.1827C29.8466 88.1827 29.8467 88.1827 29.8467 88.1827C29.853 88.1986 29.869 88.1986 29.869 88.2049C40.1378 95.6115 51.0007 99.2911 61.2247 99.4304H37.7167C37.5538 99.4367 37.3846 99.4526 37.2089 99.4589C37.0332 99.4653 36.848 99.4811 36.6563 99.4938C36.2794 99.5223 35.8738 99.5603 35.4458 99.6046C34.5898 99.6996 33.6443 99.8326 32.635 100.013C30.6132 100.38 28.3008 100.95 25.8669 101.85C25.2537 102.078 24.634 102.318 24.0144 102.588C22.7591 103.123 21.4911 103.743 20.2135 104.468C17.0163 106.277 13.7903 108.728 10.8326 112.043C10.7432 112.138 10.657 112.233 10.5739 112.328C10.5292 112.372 10.4845 112.423 10.4494 112.467C7.97719 115.235 5.98412 118.272 4.46377 121.505C4.46377 121.527 4.45736 121.533 4.44778 121.555C1.62426 127.252 0.464844 132.907 0.464844 138.354ZM111.751 149.323C111.751 128.686 129.724 111.951 151.89 111.951C174.057 111.951 192.023 128.686 192.023 149.323C192.023 169.96 174.057 186.689 151.89 186.689C129.724 186.689 111.751 169.96 111.751 149.323ZM111.751 52.5366C111.751 31.9001 129.724 15.1711 151.89 15.1711C174.057 15.1711 192.023 31.9001 192.023 52.5366C192.023 73.1732 174.057 89.9085 151.89 89.9085C129.724 89.9085 111.751 73.1732 111.751 52.5366ZM93.2704 52.5366C93.2704 73.1732 75.304 89.9085 53.1375 89.9085C30.971 89.9085 13.0046 73.1732 13.0046 52.5366C13.0046 31.9001 30.971 15.1711 53.1375 15.1711C75.304 15.1711 93.2704 31.9001 93.2704 52.5366ZM13.0046 149.323C13.0046 128.686 30.971 111.951 53.1375 111.951C75.304 111.951 93.2704 128.686 93.2704 149.323C93.2704 169.96 75.304 186.689 53.1375 186.689C30.971 186.689 13.0046 169.96 13.0046 149.323Z" fill="#FFFDFB"/>
</svg>
