<svg width="40" height="40" viewBox="0 0 40 40" fill="none" xmlns="http://www.w3.org/2000/svg">
<g id="check-verified-02">
<path id="Icon" d="M14.9987 20.0007L18.332 23.334L25.832 15.834M29.834 8.3315C30.1772 9.16154 30.836 9.82132 31.6655 10.1658L34.5741 11.3706C35.4042 11.7145 36.0637 12.374 36.4075 13.2041C36.7513 14.0342 36.7513 14.9669 36.4075 15.797L35.2036 18.7037C34.8596 19.5341 34.8591 20.4678 35.2046 21.2979L36.4065 24.2036C36.5769 24.6148 36.6647 25.0555 36.6648 25.5006C36.6649 25.9456 36.5772 26.3864 36.4069 26.7976C36.2366 27.2088 35.9869 27.5824 35.6722 27.897C35.3574 28.2117 34.9837 28.4613 34.5725 28.6314L31.666 29.8354C30.8359 30.1786 30.1762 30.8374 29.8317 31.6669L28.6269 34.5757C28.2831 35.4058 27.6236 36.0653 26.7935 36.4092C25.9635 36.753 25.0308 36.753 24.2007 36.4092L21.2942 35.2052C20.4641 34.8622 19.5317 34.8629 18.7022 35.2071L15.7935 36.4102C14.9639 36.7533 14.032 36.753 13.2026 36.4094C12.3732 36.0659 11.7141 35.4071 11.3701 34.5779L10.1649 31.6683C9.8217 30.8383 9.16294 30.1785 8.33344 29.834L5.42481 28.6292C4.59509 28.2855 3.93579 27.6264 3.59184 26.7968C3.24788 25.9671 3.24741 25.0349 3.59054 24.2049L4.79447 21.2982C5.13745 20.4681 5.13675 19.5357 4.79252 18.7061L3.59032 15.7953C3.41987 15.3842 3.3321 14.9434 3.33203 14.4984C3.33196 14.0533 3.41959 13.6126 3.5899 13.2014C3.76022 12.7902 4.00989 12.4166 4.32464 12.1019C4.6394 11.7872 5.01307 11.5377 5.42431 11.3675L8.33086 10.1635C9.16015 9.8206 9.81951 9.16265 10.1642 8.33408L11.369 5.42533C11.7128 4.59523 12.3723 3.93571 13.2024 3.59187C14.0325 3.24802 14.9651 3.24802 15.7952 3.59187L18.7018 4.79584C19.5319 5.13884 20.4642 5.13814 21.2938 4.7939L24.2037 3.59373C25.0336 3.25008 25.9661 3.25015 26.796 3.59393C27.6259 3.9377 28.2853 4.59703 28.6292 5.42692L29.8344 8.33653L29.834 8.3315Z" stroke="#423366" stroke-width="3" stroke-linecap="round" stroke-linejoin="round"/>
</g>
</svg>
