<svg width="52" height="52" viewBox="0 0 52 52" fill="none" xmlns="http://www.w3.org/2000/svg">
<g id="file-code-01">
<path id="Icon" d="M30.3346 4.91699V13.8665C30.3346 15.0799 30.3346 15.6867 30.5708 16.1501C30.7785 16.5578 31.11 16.8893 31.5177 17.097C31.9811 17.3332 32.5879 17.3332 33.8013 17.3332H42.7508M30.3346 37.9163L35.7513 32.4997L30.3346 27.083M21.668 27.083L16.2513 32.4997L21.668 37.9163M43.3346 21.6408V37.2663C43.3346 40.9067 43.3346 42.7269 42.6262 44.1173C42.003 45.3403 41.0086 46.3347 39.7856 46.9579C38.3951 47.6663 36.575 47.6663 32.9346 47.6663H19.068C15.4276 47.6663 13.6075 47.6663 12.217 46.9579C10.994 46.3347 9.9996 45.3403 9.37643 44.1173C8.66797 42.7269 8.66797 40.9067 8.66797 37.2663V14.733C8.66797 11.0927 8.66797 9.2725 9.37643 7.88207C9.9996 6.65902 10.994 5.66464 12.217 5.04147C13.6075 4.33301 15.4276 4.33301 19.068 4.33301H26.0268C27.6167 4.33301 28.4116 4.33301 29.1596 4.5126C29.8229 4.67183 30.4569 4.93446 31.0385 5.29085C31.6944 5.69282 32.2565 6.25491 33.3807 7.3791L40.2885 14.2869C41.4127 15.4111 41.9748 15.9732 42.3768 16.6292C42.7332 17.2107 42.9958 17.8448 43.155 18.508C43.3346 19.2561 43.3346 20.051 43.3346 21.6408Z" stroke="black" stroke-width="3" stroke-linecap="round" stroke-linejoin="round"/>
</g>
</svg>
