<svg width="40" height="40" viewBox="0 0 40 40" fill="none" xmlns="http://www.w3.org/2000/svg">
<g id="lightbulb-02">
<path id="Icon" d="M16.6654 29.4307V33.333C16.6654 35.174 18.1577 36.6663 19.9987 36.6663C21.8396 36.6663 23.332 35.174 23.332 33.333V29.4307M19.9987 3.33301V4.99967M4.9987 19.9997H3.33203M9.16536 9.16634L8.1652 8.16618M30.832 9.16634L31.8324 8.16618M36.6654 19.9997H34.9987M29.9987 19.9997C29.9987 25.5225 25.5215 29.9997 19.9987 29.9997C14.4759 29.9997 9.9987 25.5225 9.9987 19.9997C9.9987 14.4768 14.4759 9.99967 19.9987 9.99967C25.5215 9.99967 29.9987 14.4768 29.9987 19.9997Z" stroke="#423366" stroke-width="3" stroke-linecap="round" stroke-linejoin="round"/>
</g>
</svg>
