<svg width="40" height="40" viewBox="0 0 40 40" fill="none" xmlns="http://www.w3.org/2000/svg">
<g id="pencil-line">
<path id="Icon" d="M35.0013 34.9999H21.668M4.16797 35.8332L13.4168 32.276C14.0083 32.0484 14.3041 31.9347 14.5808 31.7861C14.8266 31.6542 15.061 31.5019 15.2814 31.3309C15.5295 31.1383 15.7536 30.9142 16.2018 30.4661L35.0013 11.6665C36.8423 9.82557 36.8423 6.8408 35.0013 4.99985C33.1604 3.1589 30.1756 3.1589 28.3347 4.99985L9.53511 23.7994C9.08693 24.2476 8.86284 24.4717 8.67029 24.7198C8.49926 24.9402 8.34697 25.1745 8.21503 25.4203C8.06648 25.6971 7.95272 25.9928 7.72519 26.5844L4.16797 35.8332ZM4.16797 35.8332L7.59817 26.9148C7.84363 26.2766 7.96636 25.9575 8.17687 25.8113C8.36084 25.6836 8.58847 25.6353 8.80846 25.6773C9.06019 25.7254 9.30194 25.9671 9.78544 26.4506L13.5506 30.2158C14.0341 30.6993 14.2758 30.941 14.3239 31.1927C14.3659 31.4127 14.3176 31.6404 14.1899 31.8243C14.0437 32.0348 13.7246 32.1576 13.0864 32.403L4.16797 35.8332Z" stroke="#423366" stroke-width="3" stroke-linecap="round" stroke-linejoin="round"/>
</g>
</svg>
