<svg width="52" height="53" viewBox="0 0 52 53" fill="none" xmlns="http://www.w3.org/2000/svg">
<g id="vuesax/linear/people">
<g id="people">
<g id="Group">
<path id="Vector" d="M38.9998 16.013C38.8698 15.9913 38.7182 15.9913 38.5882 16.013C35.5982 15.9047 33.2148 13.4563 33.2148 10.423C33.2148 7.32468 35.7065 4.83301 38.8048 4.83301C41.9032 4.83301 44.3948 7.34635 44.3948 10.423C44.3732 13.4563 41.9898 15.9047 38.9998 16.013Z" stroke="#292D32" stroke-width="3" stroke-linecap="round" stroke-linejoin="round"/>
<path id="Vector_2" d="M36.7681 31.7867C39.7365 32.285 43.0081 31.765 45.3048 30.2267C48.3598 28.19 48.3598 24.8534 45.3048 22.8167C42.9865 21.2784 39.6715 20.7583 36.7031 21.2783" stroke="#292D32" stroke-width="3" stroke-linecap="round" stroke-linejoin="round"/>
</g>
<g id="Group_2">
<path id="Vector_3" d="M12.938 16.013C13.068 15.9913 13.2196 15.9913 13.3496 16.013C16.3396 15.9047 18.723 13.4563 18.723 10.423C18.723 7.32468 16.2313 4.83301 13.133 4.83301C10.0346 4.83301 7.54297 7.34635 7.54297 10.423C7.56464 13.4563 9.94797 15.9047 12.938 16.013Z" stroke="#292D32" stroke-width="3" stroke-linecap="round" stroke-linejoin="round"/>
<path id="Vector_4" d="M15.1678 31.7867C12.1994 32.285 8.92776 31.765 6.63109 30.2267C3.57609 28.19 3.57609 24.8534 6.63109 22.8167C8.94943 21.2784 12.2644 20.7583 15.2328 21.2783" stroke="#292D32" stroke-width="3" stroke-linecap="round" stroke-linejoin="round"/>
</g>
<g id="Group_3">
<path id="Vector_5" d="M25.9998 32.1986C25.8698 32.1769 25.7182 32.1769 25.5882 32.1986C22.5982 32.0902 20.2148 29.6419 20.2148 26.6086C20.2148 23.5102 22.7065 21.0186 25.8048 21.0186C28.9032 21.0186 31.3948 23.5319 31.3948 26.6086C31.3732 29.6419 28.9898 32.1119 25.9998 32.1986Z" stroke="#292D32" stroke-width="3" stroke-linecap="round" stroke-linejoin="round"/>
<path id="Vector_6" d="M19.6936 39.0233C16.6386 41.0599 16.6386 44.3966 19.6936 46.4333C23.1603 48.7516 28.8369 48.7516 32.3036 46.4333C35.3586 44.3966 35.3586 41.0599 32.3036 39.0233C28.8586 36.7266 23.1603 36.7266 19.6936 39.0233Z" stroke="#292D32" stroke-width="3" stroke-linecap="round" stroke-linejoin="round"/>
</g>
</g>
</g>
</svg>
