<svg width="40" height="40" viewBox="0 0 40 40" fill="none" xmlns="http://www.w3.org/2000/svg">
<g id="tool">
<path id="Vector" d="M24.4983 10.4999C24.1929 10.8114 24.0219 11.2303 24.0219 11.6666C24.0219 12.1028 24.1929 12.5217 24.4983 12.8332L27.165 15.4999C27.4765 15.8053 27.8954 15.9763 28.3316 15.9763C28.7679 15.9763 29.1867 15.8053 29.4983 15.4999L35.7816 9.21655C36.6197 11.0685 36.8734 13.1319 36.5091 15.1318C36.1447 17.1316 35.1795 18.973 33.7421 20.4103C32.3047 21.8477 30.4634 22.8129 28.4635 23.1773C26.4637 23.5417 24.4003 23.2879 22.5483 22.4499L11.0316 33.9665C10.3686 34.6296 9.46931 35.0021 8.53163 35.0021C7.59395 35.0021 6.69467 34.6296 6.03163 33.9665C5.36859 33.3035 4.99609 32.4042 4.99609 31.4665C4.99609 30.5289 5.36859 29.6296 6.03163 28.9665L17.5483 17.4499C16.7102 15.5979 16.4565 13.5345 16.8209 11.5346C17.1852 9.53479 18.1504 7.69348 19.5878 6.25609C21.0252 4.8187 22.8665 3.8535 24.8664 3.48912C26.8662 3.12474 28.9296 3.37849 30.7816 4.21655L24.515 10.4832L24.4983 10.4999Z" stroke="#423366" stroke-width="2" stroke-linecap="round" stroke-linejoin="round"/>
</g>
</svg>
