<svg width="40" height="40" viewBox="0 0 40 40" fill="none" xmlns="http://www.w3.org/2000/svg">
<g id="user-check">
<path id="Vector" d="M26.668 35V31.6667C26.668 29.8986 25.9656 28.2029 24.7153 26.9526C23.4651 25.7024 21.7694 25 20.0013 25H8.33464C6.56653 25 4.87083 25.7024 3.62059 26.9526C2.37035 28.2029 1.66797 29.8986 1.66797 31.6667V35" stroke="#423366" stroke-width="2" stroke-linecap="round" stroke-linejoin="round"/>
<path id="Vector_2" d="M14.1667 18.3333C17.8486 18.3333 20.8333 15.3486 20.8333 11.6667C20.8333 7.98477 17.8486 5 14.1667 5C10.4848 5 7.5 7.98477 7.5 11.6667C7.5 15.3486 10.4848 18.3333 14.1667 18.3333Z" stroke="#423366" stroke-width="2" stroke-linecap="round" stroke-linejoin="round"/>
<path id="Vector_3" d="M28.332 18.3333L31.6654 21.6667L38.332 15" stroke="#423366" stroke-width="2" stroke-linecap="round" stroke-linejoin="round"/>
</g>
</svg>
