<svg width="52" height="52" viewBox="0 0 52 52" fill="none" xmlns="http://www.w3.org/2000/svg">
<g id="users-edit">
<path id="Icon" d="M23.832 32.5H17.332C13.2939 32.5 11.2748 32.5 9.68211 33.1597C7.55853 34.0393 5.87136 35.7265 4.99174 37.8501C4.33203 39.4428 4.33203 41.4618 4.33203 45.5M33.582 7.12998C36.7582 8.41565 38.9987 11.5295 38.9987 15.1667M25.9984 46.5833L30.3861 45.7058C30.7687 45.6293 30.96 45.5911 31.1383 45.5211C31.2967 45.459 31.4471 45.3785 31.5866 45.2812C31.7438 45.1716 31.8817 45.0337 32.1576 44.7578L46.5821 30.3334C47.7788 29.1368 47.7788 27.1966 46.5821 25.9999C45.3854 24.8033 43.4453 24.8034 42.2487 26L27.8242 40.4245C27.5483 40.7004 27.4104 40.8383 27.3008 40.9954C27.2035 41.1349 27.123 41.2854 27.0609 41.4437C26.9909 41.622 26.9527 41.8133 26.8762 42.1958L25.9984 46.5833ZM29.2487 15.1667C29.2487 19.9531 25.3685 23.8333 20.582 23.8333C15.7956 23.8333 11.9154 19.9531 11.9154 15.1667C11.9154 10.3802 15.7956 6.5 20.582 6.5C25.3685 6.5 29.2487 10.3802 29.2487 15.1667Z" stroke="black" stroke-width="3" stroke-linecap="round" stroke-linejoin="round"/>
</g>
</svg>
