<svg width="52" height="52" viewBox="0 0 52 52" fill="none" xmlns="http://www.w3.org/2000/svg">
<g id="virtual assistant">
<g id="_icons">
<path id="Vector" d="M18.4167 21.6667C11.8469 21.6667 6.5 27.0136 6.5 33.5833C6.5 40.1531 11.8469 45.5 18.4167 45.5C24.9864 45.5 30.3333 40.1531 30.3333 33.5833C30.3333 27.0136 24.9864 21.6667 18.4167 21.6667ZM18.4167 41.1667C14.2357 41.1667 10.8333 37.7644 10.8333 33.5833C10.8333 29.4023 14.2357 26 18.4167 26C22.5977 26 26 29.4023 26 33.5833C26 37.7644 22.5977 41.1667 18.4167 41.1667ZM37.9167 15.1667C33.7357 15.1667 30.3333 18.569 30.3333 22.75C30.3333 26.931 33.7357 30.3333 37.9167 30.3333C42.0977 30.3333 45.5 26.931 45.5 22.75C45.5 18.569 42.0977 15.1667 37.9167 15.1667ZM37.9167 26C36.1246 26 34.6667 24.5421 34.6667 22.75C34.6667 20.958 36.1246 19.5 37.9167 19.5C39.7087 19.5 41.1667 20.958 41.1667 22.75C41.1667 24.5421 39.7087 26 37.9167 26ZM26 13C26 9.41568 23.0843 6.5 19.5 6.5C15.9157 6.5 13 9.41568 13 13C13 16.5843 15.9157 19.5 19.5 19.5C23.0843 19.5 26 16.5843 26 13ZM17.3333 13C17.3333 11.8044 18.3044 10.8333 19.5 10.8333C20.6956 10.8333 21.6667 11.8044 21.6667 13C21.6667 14.1956 20.6956 15.1667 19.5 15.1667C18.3044 15.1667 17.3333 14.1956 17.3333 13Z" fill="#423366"/>
</g>
</g>
</svg>
