<?xml version="1.0" encoding="utf-8"?>
<!-- Generator: Adobe Illustrator 25.2.0, SVG Export Plug-In . SVG Version: 6.00 Build 0)  -->
<svg version="1.1" id="Layer_1" xmlns="http://www.w3.org/2000/svg" xmlns:xlink="http://www.w3.org/1999/xlink" x="0px" y="0px"
	 viewBox="0 0 4000 3000" style="enable-background:new 0 0 4000 3000;" xml:space="preserve">
<style type="text/css">
	.st0{fill:#FFFFFF;}
</style>
<path class="st0" d="M665.78,1512.42c9.85,780.68,598.03,1289.64,1339.14,1289.64c667.23,0,1319.45-499.11,1329.3-1289.64
	c9.85-805.44-627.47-1314.48-1329.3-1314.48C1293.44,197.94,655.84,706.99,665.78,1512.42z M1530.38,1993.86
	c124.67,118.57,294.26,190.49,480.63,187.54c362.57-5.75,660.16-299.63,670.17-662.11c4.6-166.65-50.62-320.12-145.77-440.83
	c321.14,352.15,339.18,763.85,79.5,1022.32C2340.06,2374.36,1895.7,2352.09,1530.38,1993.86z M1383.25,890.1
	c252.87-251.49,655.54-236.3,1008.98,52.73c-116.04-81.95-258.88-128.42-412.71-123.93c-369.78,10.81-665.72,320.24-660.91,690.15
	c2.31,177.43,72.44,338.52,185.63,458.5C1150.07,1601.4,1116.58,1155.48,1383.25,890.1z"/>
</svg>
