<svg width="266" height="204" viewBox="0 0 266 204" fill="none" xmlns="http://www.w3.org/2000/svg">
<path d="M196.606 78.6527C192.929 81.7285 188.664 84.0097 184.017 85.2401C180.646 86.1372 178.782 86.0603 178.782 86.0603C156.311 85.9834 170.636 51.0986 170.636 51.0986C170.636 51.0986 195.508 42.717 202.096 48.7404C208.684 54.7639 209.221 64.222 208.506 67.8617C208.353 68.6307 207.714 70.7325 206.667 71.8347C205.237 73.3469 203.271 75.1155 201.254 75.5513C199.389 75.9614 197.857 77.6018 196.606 78.6527Z" fill="#D3785F"/>
<path d="M170.508 51.5076L168.874 56.1726C168.874 56.1726 163.485 48.0473 169.537 41.6137C171.197 39.8451 173.368 38.6661 175.692 38.1278C178.271 37.5126 182.305 36.6155 183.378 36.5386C184.987 36.4361 188.791 35.8466 191.192 35.539C194.409 35.1032 199.593 36.0773 201.585 37.3845C201.61 37.3845 201.61 37.4101 201.636 37.4101C203.5 38.6404 205.083 40.204 206.334 42.0494C206.666 42.5621 206.973 43.0235 207.126 43.3054C207.688 44.3819 208.914 46.0993 210.522 47.4065C212.131 48.6881 214.199 52.1227 212.54 58.5563C210.88 64.9899 209.577 71.1671 204.879 73.3715C204.879 73.3715 208.556 68.8347 206.105 65.2975C203.653 61.7603 200.078 63.7852 198.01 65.9126C198.01 65.9126 194.333 59.0177 197.78 51.0975C197.78 51.0975 197.039 51.8408 194.639 51.6614C193.541 51.5845 192.417 51.5845 191.319 51.7126L190.068 51.8408C189.098 51.9433 188.127 52.0971 187.183 52.3278C183.965 53.0711 175.232 54.6603 170.508 51.5076Z" fill="#8E4326"/>
<path d="M198.624 65.3477C198.624 65.3477 197.704 66.2191 196.785 67.9877" stroke="black" stroke-miterlimit="10"/>
<path d="M205.622 72.2969C205.622 72.2969 203.477 76.7312 198.625 75.3983" stroke="black" stroke-miterlimit="10"/>
<path d="M199.57 71.8596C199.57 71.8596 201.102 69.2965 203.324 67.8867" stroke="black" stroke-miterlimit="10"/>
<path d="M180.954 77.601C180.954 77.601 178.119 78.1906 174.34 77.2422C174.34 77.2422 174.927 81.2407 177.762 81.2151C180.647 81.1895 180.954 77.601 180.954 77.601Z" fill="white"/>
<path d="M185.092 72.7556C187.998 72.7556 190.353 70.3916 190.353 67.4755C190.353 64.5593 187.998 62.1953 185.092 62.1953C182.187 62.1953 179.832 64.5593 179.832 67.4755C179.832 70.3916 182.187 72.7556 185.092 72.7556Z" stroke="black" stroke-miterlimit="10"/>
<path d="M170.866 72.1423C173.771 72.1423 176.126 69.7783 176.126 66.8622C176.126 63.946 173.771 61.582 170.866 61.582C167.961 61.582 165.605 63.946 165.605 66.8622C165.605 69.7783 167.961 72.1423 170.866 72.1423Z" stroke="black" stroke-miterlimit="10"/>
<path d="M176.102 66.7348C177.327 66.1709 178.706 66.1709 179.932 66.7091L179.957 66.7348" stroke="black" stroke-miterlimit="10"/>
<path d="M190.273 67.1421L198.445 65.5273" stroke="black" stroke-miterlimit="10"/>
<path d="M163.615 192.916H135.066C132.461 179.383 133.227 166.746 134.785 152.008H163.615L163.64 152.187C165.811 165.644 165.811 179.28 163.64 192.737L163.615 192.916Z" fill="#D3785F"/>
<path d="M214.84 121.456C207.537 131.144 209.631 155.161 209.631 155.161L218.747 156.674C224.62 157.648 230.646 157.622 236.52 156.622L245.125 155.161C245.125 155.161 246.862 131.349 241.32 115.432C236.111 100.437 203.579 91.7227 203.579 91.7227H177.685C177.685 91.7227 156.746 94.5421 145.23 104.897C139.561 109.998 137.135 113.663 135.424 119.097C129.602 137.604 131.874 155.161 131.874 155.161L140.48 156.622C146.353 157.622 152.354 157.622 158.253 156.674L167.369 155.161C167.369 155.161 169.463 131.144 162.16 121.456L156.721 150.496L207.588 151.265L228.808 137.04L214.84 121.456Z" fill="#D3D878"/>
<path d="M135.477 150.496C135.477 150.496 149.164 153.649 165.328 150.881" stroke="black" stroke-miterlimit="10"/>
<path d="M158.379 128.789C158.379 128.789 154.038 168.928 158.379 188.87H216.932L217.596 131.147L158.379 128.789Z" fill="#D3D878"/>
<path d="M144.894 153.211L133.758 180.016L136.515 181.17L147.651 154.365L144.894 153.211Z" fill="#423366"/>
<path d="M136.52 181.15L135.703 183.123L133.507 184.584L132.945 181.97L133.762 179.996L136.52 181.15Z" fill="#8671B7"/>
<path d="M149.824 152.187L147.194 158.544L142.266 156.493L144.896 150.137C145.177 149.496 145.917 149.163 146.556 149.445L149.109 150.521C149.799 150.778 150.105 151.521 149.824 152.187Z" fill="#8671B7"/>
<path d="M150.08 152.573L148.063 157.443L147.68 157.29L149.85 152.035C150.055 152.138 150.157 152.368 150.08 152.573Z" fill="#D7D0E7"/>
<path d="M158.38 129.762C158.38 129.762 153.886 166.671 158.38 188.869" stroke="black" stroke-miterlimit="10"/>
<path d="M242.75 153.24C242.75 153.24 241.958 180.461 234.272 186.613C228.45 191.278 201.28 186.459 183.047 182.768C173.88 180.923 164.457 180.897 155.29 182.691L150.029 183.717C148.727 183.717 145.918 185.229 143.186 183.717C140.454 182.204 142.522 178.744 142.522 178.744C139.636 176.463 142.318 172.208 142.318 172.208C142.318 172.208 139.151 170.337 141.424 165.313L137.594 165.749C137.032 165.8 136.547 165.416 136.496 164.852C136.419 163.442 137.696 162.391 137.696 162.391C137.696 162.391 139.994 160.264 142.343 159.905C144.692 159.546 155.979 158.085 162.159 160.853C168.339 163.647 171.811 165.211 181.03 164.339C190.248 163.468 212.183 162.596 212.183 162.596V162.314C212.183 162.314 211.213 157.213 211.724 153.215H242.75V153.24Z" fill="#D3785F"/>
<path d="M162.21 160.88C156.03 158.086 144.743 159.572 142.394 159.931C140.045 160.29 137.746 162.417 137.746 162.417C137.746 162.417 136.47 163.468 136.546 164.878C136.572 165.442 137.083 165.826 137.644 165.775L141.475 165.339C139.202 170.363 142.368 172.234 142.368 172.234C142.368 172.234 139.662 176.515 142.573 178.771C142.573 178.771 140.479 182.231 143.237 183.743C145.969 185.255 148.778 183.743 150.08 183.743L155.341 182.718C155.341 182.718 158.864 182.051 160.55 181.872" stroke="black" stroke-miterlimit="10"/>
<path d="M265.503 188.844H0.722656V203.377H265.503V188.844Z" fill="#D7D0E7"/>
<path d="M175.515 188.841H117.396C116.91 188.841 116.527 188.457 116.527 187.97V185.407C116.527 184.92 116.91 184.535 117.396 184.535H175.54C176.026 184.535 176.409 184.92 176.409 185.407V187.97C176.383 188.457 176 188.841 175.515 188.841Z" fill="#3C5C90"/>
<path d="M142.855 172.258C142.855 172.258 146.073 172.924 149.316 172.027" stroke="black" stroke-miterlimit="10"/>
<path d="M142.957 178.871C142.957 178.871 145.23 180.076 149.341 179.435" stroke="black" stroke-miterlimit="10"/>
<path d="M142.012 165.235C142.012 165.235 145.51 164.517 148.472 164.927" stroke="black" stroke-miterlimit="10"/>
<path d="M187.184 63.0416C187.184 63.0416 184.784 62.0932 183.328 62.734" stroke="black" stroke-miterlimit="10"/>
<path d="M174.34 62.3502C174.34 62.3502 171.94 61.4018 170.484 62.0426" stroke="black" stroke-miterlimit="10"/>
<path d="M177.379 68.7852C177.379 68.7852 177.047 69.7592 176.23 71.5534C175.873 72.3736 176.511 73.322 177.354 73.5783C177.89 73.7321 178.018 73.809 178.912 73.7321" stroke="black" stroke-miterlimit="10"/>
<path d="M185.245 68.1691C186.077 68.1691 186.752 67.492 186.752 66.6568C186.752 65.8216 186.077 65.1445 185.245 65.1445C184.413 65.1445 183.738 65.8216 183.738 66.6568C183.738 67.492 184.413 68.1691 185.245 68.1691Z" fill="black"/>
<path d="M172.401 67.5285C173.233 67.5285 173.908 66.8514 173.908 66.0162C173.908 65.181 173.233 64.5039 172.401 64.5039C171.569 64.5039 170.895 65.181 170.895 66.0162C170.895 66.8514 171.569 67.5285 172.401 67.5285Z" fill="black"/>
<path d="M214.841 121.457C207.027 134.811 209.632 155.163 209.632 155.163C209.632 155.163 227.966 159.905 245.126 155.163" fill="#D3D878"/>
<path d="M214.841 121.457C207.027 134.811 209.632 155.163 209.632 155.163C209.632 155.163 227.966 159.905 245.126 155.163" stroke="black" stroke-miterlimit="10"/>
<path d="M177.66 86.0321C178.375 91.0303 177.686 91.6968 177.686 91.6968C179.831 97.182 184.044 100.36 190.607 100.386C197.476 100.437 203.553 91.6968 203.553 91.6968C199.825 87.4932 201.255 75.5488 201.255 75.5488L199.085 74.5747C198.216 74.1903 197.195 74.2415 196.378 74.7285L177.66 86.0321Z" fill="#D3785F"/>
<path d="M207.025 93.3906C207.025 93.3906 198.955 104.951 189.89 104.899C181.183 104.848 175.641 100.644 172.781 93.3906" stroke="#9FA35B" stroke-miterlimit="10"/>
<path d="M177.66 86.0343C177.66 86.0343 180.648 86.1368 184.019 85.2397C188.641 84.0094 192.931 81.7282 196.608 78.6523C196.608 78.6523 186.674 89.8022 177.992 89.6227C177.992 89.6484 177.711 86.5469 177.66 86.0343Z" fill="black"/>
<path d="M212.234 150.496C212.234 150.496 225.922 153.649 242.086 150.881" stroke="black" stroke-miterlimit="10"/>
<path d="M116.527 186.102H176.383" stroke="white" stroke-width="0.5" stroke-miterlimit="10"/>
<path d="M116.527 187.484H176.383" stroke="white" stroke-width="0.5" stroke-miterlimit="10"/>
<path d="M128.374 118.535C128.374 118.535 122.935 124.841 124.16 139.399" stroke="black" stroke-miterlimit="10"/>
<path d="M127.149 127.504C127.149 127.504 125.489 135.885 126.792 143.293" stroke="black" stroke-miterlimit="10"/>
<path d="M216.574 90.4688C216.574 90.4688 229.878 92.1092 237.743 98.2608" stroke="black" stroke-miterlimit="10"/>
<path d="M222.297 88.4688C222.297 88.4688 227.813 89.1095 234.12 93.1337" stroke="black" stroke-miterlimit="10"/>
<path d="M211.98 49.6367C211.98 49.6367 218.16 56.4035 207.895 70.3216" stroke="#8E4326" stroke-miterlimit="10"/>
<path d="M150.004 0.242188H145.484V72.2931H150.004V0.242188Z" fill="#D7D0E7"/>
<path d="M29.5003 0.242188H24.9805V72.2931H29.5003V0.242188Z" fill="#D7D0E7"/>
<path d="M51.8425 9.13672H33.8398V72.2934H51.8425V9.13672Z" fill="#3C5C90"/>
<path d="M51.8425 49.8398H33.8398V72.2676H51.8425V49.8398Z" fill="#93ABD2"/>
<path d="M74.1628 9.13672H56.1602V72.2934H74.1628V9.13672Z" fill="#3C5C90"/>
<path d="M74.1628 49.8398H56.1602V72.2676H74.1628V49.8398Z" fill="#93ABD2"/>
<path d="M96.5066 9.13672H78.5039V72.2934H96.5066V9.13672Z" fill="#3C5C90"/>
<path d="M96.5066 49.8398H78.5039V72.2676H96.5066V49.8398Z" fill="#93ABD2"/>
<path d="M118.823 9.13672H100.82V72.2934H118.823V9.13672Z" fill="#3C5C90"/>
<path d="M118.823 49.8398H100.82V72.2676H118.823V49.8398Z" fill="#93ABD2"/>
<path d="M141.143 9.13672H123.141V72.2934H141.143V9.13672Z" fill="#3C5C90"/>
<path d="M141.143 49.8398H123.141V72.2676H141.143V49.8398Z" fill="#93ABD2"/>
<path d="M46.1736 77.2656H35.2188V91.7219H46.1736V77.2656Z" fill="#8671B7"/>
<path d="M139.787 77.2656H128.832V91.7219H139.787V77.2656Z" fill="#8671B7"/>
<path d="M42.8553 67.2438C45.8733 67.2438 48.3199 64.788 48.3199 61.7586C48.3199 58.7293 45.8733 56.2734 42.8553 56.2734C39.8372 56.2734 37.3906 58.7293 37.3906 61.7586C37.3906 64.788 39.8372 67.2438 42.8553 67.2438Z" fill="white"/>
<path d="M65.1717 67.2438C68.1897 67.2438 70.6363 64.788 70.6363 61.7586C70.6363 58.7293 68.1897 56.2734 65.1717 56.2734C62.1536 56.2734 59.707 58.7293 59.707 61.7586C59.707 64.788 62.1536 67.2438 65.1717 67.2438Z" fill="white"/>
<path d="M87.492 67.2438C90.51 67.2438 92.9566 64.788 92.9566 61.7586C92.9566 58.7293 90.51 56.2734 87.492 56.2734C84.474 56.2734 82.0273 58.7293 82.0273 61.7586C82.0273 64.788 84.474 67.2438 87.492 67.2438Z" fill="white"/>
<path d="M109.808 67.2438C112.826 67.2438 115.273 64.788 115.273 61.7586C115.273 58.7293 112.826 56.2734 109.808 56.2734C106.79 56.2734 104.344 58.7293 104.344 61.7586C104.344 64.788 106.79 67.2438 109.808 67.2438Z" fill="white"/>
<path d="M132.152 67.2438C135.17 67.2438 137.617 64.788 137.617 61.7586C137.617 58.7293 135.17 56.2734 132.152 56.2734C129.134 56.2734 126.688 58.7293 126.688 61.7586C126.688 64.788 129.134 67.2438 132.152 67.2438Z" fill="white"/>
<path d="M156.489 72.293H18.5195V77.2655H156.489V72.293Z" fill="#AEA0CF"/>
<path d="M54.0664 72.293H98.6518" stroke="black" stroke-miterlimit="10"/>
<path d="M145.484 28.4609V56.9378" stroke="black" stroke-miterlimit="10"/>
<path d="M24.9805 6.90625V35.4088" stroke="black" stroke-miterlimit="10"/>
</svg>
