<svg width="111" height="101" viewBox="0 0 111 101" fill="none" xmlns="http://www.w3.org/2000/svg">
<path d="M24.7778 88.2835C26.6687 91.5586 29.5364 94.0096 32.5118 95.8247C32.5157 95.8258 32.5157 95.8258 32.5215 95.8273C32.5327 95.8323 32.5401 95.8394 32.5527 95.8469C33.8072 96.6414 35.1686 97.366 36.636 98.0049C38.1036 98.6469 39.6721 99.2029 41.3372 99.6655C41.3372 99.6655 41.8322 99.8064 42.6686 99.9971C42.6312 99.9925 42.5975 99.9858 42.558 99.9775C44.5114 100.455 46.4181 100.749 48.2515 100.872C48.2676 100.875 48.2812 100.878 48.2959 100.878C50.9174 101.094 53.8696 101.041 56.3714 100.25C56.3714 100.25 56.3776 100.247 56.3877 100.244C56.3877 100.244 56.3877 100.244 56.3902 100.243C56.9355 100.135 69.0904 97.5843 71.3347 85.8712C71.3347 85.8712 71.5918 83.8607 71.35 81.0118C71.3463 80.991 71.3451 80.9688 71.3438 80.9466C71.3438 80.9466 71.3463 80.9452 71.3428 80.9391C71.3498 80.7993 71.4037 78.9241 70.139 75.9742C70.1376 75.9717 70.1341 75.9656 70.1351 75.9617C70.1351 75.9617 70.1351 75.9617 70.1337 75.9592C69.8438 75.2651 69.5092 74.5852 69.1248 73.9194L64.202 65.3929C66.3746 69.1559 69.9948 72.4461 74.8541 74.7903C74.8541 74.7903 74.8652 74.7954 74.8817 74.8038C74.8831 74.8063 74.8877 74.8085 74.8929 74.8088C74.8989 74.8135 74.9093 74.8173 74.9154 74.822C74.9265 74.827 74.935 74.8303 74.9462 74.8353C74.9837 74.8545 75.0356 74.8784 75.0941 74.9052C75.1092 74.9112 75.1203 74.9162 75.1302 74.9219C75.1664 74.9387 75.2083 74.9569 75.2459 74.9761C75.267 74.9868 75.2834 74.9953 75.3031 75.0036C75.4149 75.0568 75.5422 75.114 75.6873 75.179C75.7557 75.2115 75.8266 75.2425 75.904 75.2763C76.5983 75.5849 77.6006 76.0084 78.7659 76.4392C78.9586 76.5094 79.1526 76.5788 79.3504 76.6493C79.8681 76.8295 80.4089 77.0126 80.9657 77.1832C81.661 77.3932 82.3833 77.5926 83.1056 77.7575C83.6866 77.8897 84.2684 78.0034 84.8461 78.09C85.9949 78.2572 87.1155 78.3182 88.1218 78.2014C93.2505 78.4562 97.8232 77.384 101.5 75.2613C105.721 72.8241 108.755 69.0061 110.078 64.2305C112.6 55.1229 107.645 46.2766 97.0505 41.7128C97.0505 41.7128 97.0505 41.7128 97.0491 41.7104C95.4148 41.006 93.646 40.4038 91.7465 39.9163C91.8336 39.9412 91.9229 39.9698 92.0115 39.9971C88.5013 39.0237 85.4074 38.6569 82.7421 38.6426C82.6065 38.6457 82.4738 38.6422 82.3421 38.6463C81.8538 38.6487 81.383 38.6671 80.9279 38.6927C80.4768 38.7194 80.0396 38.756 79.6184 38.803C79.3611 38.8273 79.1081 38.859 78.8621 38.8915C75.0744 39.4091 72.5971 40.5974 71.524 41.2088C71.2634 41.3592 71.0847 41.4739 70.9916 41.539C70.9656 41.5541 70.9496 41.5666 70.936 41.5744L70.8713 41.5742L79.3885 36.6568C83.5415 34.2215 86.5272 30.4263 87.8349 25.7051C90.6113 15.6728 84.3244 5.95563 71.4102 1.9333C71.4102 1.9333 71.399 1.9283 71.384 1.92228C71.3742 1.91973 71.3704 1.9187 71.3567 1.91513C71.3553 1.91268 71.347 1.9126 71.3431 1.91158C71.3416 1.90912 71.337 1.90686 71.3319 1.90656C71.037 1.80547 69.8908 1.43073 68.3785 1.06952C68.2827 1.04965 68.1884 1.02395 68.0911 1.00163C66.981 0.746653 65.6966 0.510619 64.4226 0.396001C64.0185 0.35795 63.6138 0.333275 63.2183 0.324556C63.2107 0.325686 63.2082 0.327133 63.2036 0.324889C57.4655 -0.137126 52.3698 0.923161 48.3867 3.22282C44.3663 5.54397 41.4811 9.1291 40.2161 13.6866C38.9609 18.2353 39.6248 22.8268 41.9581 26.8682L46.8823 35.3972C44.188 30.7305 39.171 26.8751 32.2105 24.6797C32.2091 24.6773 32.2007 24.6772 32.1857 24.6711C32.1706 24.6651 32.1412 24.6543 32.1047 24.6427C32.095 24.6401 32.0872 24.6381 32.0774 24.6355C32.0663 24.6305 32.0585 24.6285 32.0487 24.626C32.0365 24.6248 32.0215 24.6188 32.0103 24.6138C31.9928 24.6092 31.9745 24.6034 31.9543 24.5971C31.9159 24.585 31.8711 24.5732 31.8262 24.5615C31.7779 24.5437 31.7233 24.5294 31.6659 24.5102C31.6537 24.5091 31.6386 24.5031 31.625 24.4995C31.6113 24.4959 31.5963 24.4899 31.5787 24.4853C31.5417 24.4756 31.5006 24.4618 31.4604 24.4523C31.4356 24.4437 31.4135 24.4369 31.3869 24.431C31.3543 24.4204 31.3224 24.411 31.2861 24.4025C29.9521 24.012 27.3691 23.3322 24.836 23.0568C24.6248 23.0349 24.4157 23.0166 24.2047 22.9979C23.5759 22.9489 22.9594 22.9272 22.3695 22.9457C22.3656 22.9447 22.3619 22.9468 22.3573 22.9446C22.3534 22.9435 22.3451 22.9434 22.3375 22.9446C11.5506 22.5839 3.29637 27.7304 0.888122 36.3943C-1.66636 45.633 3.7162 55.0419 14.8947 59.7001C14.8961 59.7026 14.8961 59.7026 14.8961 59.7026C14.9058 59.7051 14.9112 59.7086 14.9209 59.7111C17.0273 60.7576 19.7872 61.417 21.8849 61.8065C21.8874 61.805 21.8874 61.805 21.8888 61.8075C21.8913 61.8061 21.8912 61.8061 21.8912 61.8061C21.9249 61.8128 21.9598 61.8188 21.9942 61.8267C22.1008 61.8453 22.2068 61.8626 22.3097 61.8833C22.3195 61.8858 22.331 61.8857 22.3395 61.889C22.3607 61.8914 22.3769 61.8935 22.3944 61.8981C23.0696 62.0216 23.7306 62.1206 24.3873 62.1977C24.3949 62.1965 24.3995 62.1988 24.4071 62.1976C24.4408 62.2044 24.4782 62.2089 24.5116 62.2125C24.5735 62.2193 24.627 62.226 24.6732 62.2287C24.6966 62.2349 24.7127 62.237 24.7313 62.2377C24.7526 62.2401 24.7733 62.2445 24.7888 62.2454C24.8247 62.2475 24.852 62.2547 24.8782 62.2543C24.8958 62.2589 24.9131 62.2603 24.9278 62.2599C24.9491 62.2624 24.9652 62.2645 24.9737 62.2678C24.9762 62.2663 24.9762 62.2663 24.9762 62.2663C24.9822 62.271 24.9884 62.2675 24.9899 62.2699C30.635 62.8346 35.6777 61.8229 39.6808 59.5837L30.5482 64.8564C30.4863 64.8954 30.4241 64.9395 30.3572 64.9813C30.2904 65.0232 30.222 65.0709 30.1504 65.1188C30.0103 65.2143 29.8612 65.32 29.7049 65.4332C29.3935 65.662 29.056 65.9255 28.7042 66.2218C28.0009 66.8175 27.2299 67.5569 26.4855 68.451C26.2982 68.6768 26.1113 68.909 25.9307 69.1522C25.5627 69.641 25.2088 70.1657 24.8746 70.7331C24.0367 72.1503 23.3314 73.8229 22.9236 75.7701C22.9101 75.8269 22.8978 75.8831 22.8868 75.9385C22.8793 75.9657 22.8733 75.9953 22.8695 76.0204C22.5278 77.6465 22.4324 79.2694 22.5646 80.8623C22.5695 80.8709 22.5684 80.8748 22.5697 80.8855C22.7463 83.7247 23.5602 86.1746 24.7778 88.2835ZM70.4637 67.57C65.8502 59.5792 69.0911 49.0678 77.7026 44.096C86.3141 39.1241 97.0352 41.5745 101.649 49.5653C106.262 57.5561 103.022 68.0635 94.4108 73.0354C85.7993 78.0072 75.0772 75.5607 70.4637 67.57ZM48.8263 30.0929C44.2128 22.1021 47.4552 11.5932 56.0667 6.62139C64.6781 1.64954 75.3978 4.09747 80.0113 12.0882C84.6248 20.079 81.3863 30.589 72.7748 35.5608C64.1633 40.5326 53.4398 38.0837 48.8263 30.0929ZM41.6468 34.238C46.2602 42.2288 43.0218 52.7387 34.4103 57.7106C25.7988 62.6824 15.0777 60.232 10.4642 52.2413C5.85075 44.2505 9.09062 33.743 17.7021 28.7712C26.3136 23.7993 37.0333 26.2473 41.6468 34.238ZM32.1016 89.7183C27.4881 81.7275 30.7266 71.2176 39.3381 66.2458C47.9496 61.2739 58.6707 63.7243 63.2841 71.7151C67.8976 79.7058 64.6577 90.2133 56.0463 95.1852C47.4348 100.157 36.7151 97.7091 32.1016 89.7183Z" fill="#FFD1AB" fill-opacity="0.5"/>
</svg>
