<svg width="528" height="516" viewBox="0 0 528 516" fill="none" xmlns="http://www.w3.org/2000/svg">
<path d="M153.711 258.03H10.9755C4.89593 258.03 0 253.129 0 247.043V10.9869C0 4.90101 4.89593 0 10.9755 0H153.711C159.79 0 164.686 4.90101 164.686 10.9869V247.097C164.686 253.129 159.79 258.03 153.711 258.03Z" fill="#AEA0CF"/>
<path d="M527.057 404.577H347.629V288.191H468.682C500.909 288.191 527.003 314.312 527.003 346.573V404.577H527.057Z" fill="#5D81BB"/>
<path d="M392.067 404.577H305.555V331.493C305.555 307.58 324.923 288.191 348.811 288.191C372.699 288.191 392.067 307.58 392.067 331.493V404.577Z" fill="#435D87"/>
<path d="M392.071 404.58H244.763C242.557 404.58 240.781 402.803 240.781 400.595C240.781 398.387 242.557 396.609 244.763 396.609H392.125V404.58H392.071Z" fill="#435D87"/>
<path d="M456.63 404.582H426.555V566.369H456.63V404.582Z" fill="#435D87"/>
<path d="M453.242 365.372C458.472 365.372 462.712 359.657 462.712 352.608C462.712 345.558 458.472 339.844 453.242 339.844C448.013 339.844 443.773 345.558 443.773 352.608C443.773 359.657 448.013 365.372 453.242 365.372Z" fill="#FFD1AB"/>
<path d="M486.928 277.968H450.988V254.324H486.928L476.49 266.119L486.928 277.968Z" fill="#FFDBBE"/>
<path d="M386.211 396.666H311.48V333.545C311.48 312.864 328.213 296.168 348.819 296.168C369.478 296.168 386.157 312.918 386.157 333.545V396.666H386.211Z" fill="#2A3A54"/>
<path d="M455.508 254.324H450.988V342.596H455.508V254.324Z" fill="#FFD1AB"/>
<path d="M453.246 360.954C456.663 360.954 459.433 357.216 459.433 352.606C459.433 347.995 456.663 344.258 453.246 344.258C449.829 344.258 447.059 347.995 447.059 352.606C447.059 357.216 449.829 360.954 453.246 360.954Z" fill="#FFF6EF"/>
<path d="M504.1 225.662C505.821 225.662 505.821 222.969 504.1 222.969C502.378 222.969 502.378 225.662 504.1 225.662Z" fill="#FFE4CE"/>
<path d="M195.54 90.379C195.54 90.379 200.759 126.571 180.798 142.459C175.526 146.606 168.908 148.545 162.452 147.791C162.075 147.737 160.892 146.875 160.623 146.66C159.224 145.69 156.426 143.752 155.35 142.459C152.66 139.228 148.517 136.642 146.365 130.61C146.365 130.61 143.783 125.979 138.457 121.562C136.681 120.108 133.292 121.562 131.57 121.131C127.212 120 125.867 119.516 124.952 115.907C124.361 113.484 125.275 105.459 126.297 102.766C131.409 89.0864 152.068 77.9918 152.068 77.9918C152.068 77.9918 167.025 71.529 175.849 73.7371C184.564 75.8914 195.54 90.379 195.54 90.379Z" fill="#914539"/>
<path d="M139.374 106.376C139.374 106.376 135.177 101.151 131.142 103.198C129.474 104.06 128.883 104.383 127.322 107.022C125.332 110.469 125.224 119.786 135.07 121.509" stroke="black" stroke-width="0.636942" stroke-miterlimit="10"/>
<path d="M132.055 109.02C132.055 109.02 134.906 111.766 136.843 114.944" stroke="black" stroke-width="0.636942" stroke-miterlimit="10"/>
<path d="M135.773 103.199C135.773 103.199 139.324 105.515 141.046 108.37" stroke="black" stroke-width="0.636942" stroke-miterlimit="10"/>
<path d="M168.422 140.953C168.422 140.953 161.535 146.5 158.038 156.41C154.541 166.319 140.23 172.998 132.805 171.651C125.327 170.359 100.525 146.069 122.099 132.012C131.998 125.603 134.043 113.809 134.043 113.809L139.369 114.886L152.013 121.079L168.422 140.953Z" fill="#914539"/>
<path d="M167.836 126.092C167.836 126.092 173.593 127.707 180.587 125.445C180.587 125.445 179.296 132.77 173.915 133.039C168.428 133.416 167.836 126.092 167.836 126.092Z" fill="white"/>
<path d="M139.809 59.5756C139.809 59.5756 140.509 42.449 125.66 43.7415C116.406 44.5494 112.532 47.7808 110.918 50.0428C109.143 52.5741 107.206 54.9977 105 57.0981L103.601 58.4446C100.427 61.5144 97.8982 65.1767 96.2841 69.2699C93.325 76.8099 91.9262 87.7968 105.753 92.6439C105.753 92.6439 110.81 94.5289 116.244 89.8433L117.589 84.2422L120.602 76.2713L128.673 66.9001L138.411 59.8448L139.809 59.5756Z" fill="black"/>
<path d="M154.172 98.8868C154.172 98.8868 159.229 96.8941 162.296 98.2405" stroke="black" stroke-width="0.636942" stroke-miterlimit="10"/>
<path d="M182.254 98.0821C182.254 98.0821 187.311 96.0894 190.378 97.4358" stroke="black" stroke-width="0.636942" stroke-miterlimit="10"/>
<path d="M177.474 110.363C177.474 110.363 178.873 112.087 179.895 116.18C180.326 118.011 179.303 119.896 177.528 120.435C176.398 120.758 176.129 120.919 174.246 120.758" stroke="black" stroke-width="0.636942" stroke-miterlimit="10"/>
<path d="M254.622 299.613C254.622 299.613 237.459 321.587 231.379 340.06C230.626 342.43 232.778 344.692 235.146 344.046C239.073 343.022 245.045 340.275 251.501 333.328L258.065 325.465" fill="#CCA789"/>
<path d="M359.753 342.302L298.535 304.898L270.673 350.595L331.891 387.999L359.753 342.302Z" fill="#8671B7"/>
<path d="M270.641 350.51L314.596 347.332L331.867 387.94" fill="#67578C"/>
<path d="M298.512 304.836L311.316 352.715L359.684 342.267" fill="#A88EE6"/>
<path d="M271.355 349.435C269.203 345.18 238.59 327.407 238.59 327.407L237.406 321.375L258.873 303.171L262.962 302.363L265.652 303.333C265.652 303.333 283.837 317.551 297.933 322.829C298.256 322.937 298.578 323.044 298.901 323.152C299.708 323.368 301.699 324.122 301.053 325.468C300.892 325.845 300.515 326.114 300.139 326.222C298.74 326.707 294.382 327.784 286.204 325.845L278.672 324.445L284.052 328.538L271.355 349.435Z" fill="#914539"/>
<path d="M14.3408 188.936L0.40625 192.975V131.955C0.40625 131.955 31.8263 121.345 62.0089 121.399C99.5622 121.506 122.051 132.009 122.051 132.009C122.051 132.009 111.937 150.859 125.387 164.161C138.783 177.464 155.946 161.253 158.044 156.406C158.044 156.406 176.175 181.126 183.654 194.591C190.756 207.301 234.98 267.406 249.722 282.809C251.713 284.855 253.596 287.01 255.371 289.218C259.352 294.173 265.378 301.874 265.701 303.328C265.701 303.328 237.509 321.586 231.429 340.059C231.429 340.059 231.053 341.621 231.698 342.59L145.616 239.131" fill="#FFD1AB"/>
<path d="M158.264 109.66C160.017 109.66 161.438 108.237 161.438 106.482C161.438 104.727 160.017 103.305 158.264 103.305C156.511 103.305 155.09 104.727 155.09 106.482C155.09 108.237 156.511 109.66 158.264 109.66Z" fill="black"/>
<path d="M186.346 108.961C188.099 108.961 189.52 107.538 189.52 105.783C189.52 104.028 188.099 102.605 186.346 102.605C184.593 102.605 183.172 104.028 183.172 105.783C183.172 107.538 184.593 108.961 186.346 108.961Z" fill="black"/>
<path d="M117.855 91.6699C116.295 91.6161 115.434 91.3468 114.896 91.0775C114.412 90.8621 114.197 90.3235 114.304 89.7849C120.061 65.226 138.246 58.6016 139.215 58.6016C139.968 58.6016 141.905 60.2173 142.712 60.9713C142.712 60.9713 132.812 64.849 126.625 71.9043C120.438 78.9596 117.855 91.6699 117.855 91.6699Z" fill="#423366"/>
<path d="M115.112 129.695C115.112 129.695 101.769 153.931 119.47 170.358C137.17 186.784 159.498 168.203 162.296 162.171" stroke="#CCA789" stroke-width="0.636942" stroke-miterlimit="10"/>
<path d="M258.868 297.727C258.868 297.727 234.927 314.153 227.879 331.226" stroke="black" stroke-width="0.636942" stroke-miterlimit="10"/>
<path d="M154.44 236.173C154.44 236.173 157.022 273.388 133.188 279.636L130.606 284.052H11.3817C5.30218 284.052 0.40625 279.151 0.40625 273.065V215.815L23.218 171.867" fill="#FFD1AB"/>
<path d="M0.40625 215.815L23.218 171.867" stroke="black" stroke-width="0.636942" stroke-miterlimit="10"/>
<path d="M154.44 236.176C154.44 236.176 156.969 272.583 133.996 279.423C133.512 279.585 133.081 279.908 132.812 280.339L130.66 284.055" stroke="black" stroke-width="0.636942" stroke-miterlimit="10"/>
<path d="M139.754 123.285C139.754 123.285 146.856 137.827 162.404 147.736L162.297 147.898C161.059 149.675 160.037 151.56 159.176 153.499L159.069 153.714C159.069 153.714 144.542 139.335 139.754 123.285Z" fill="black"/>
<path d="M134.477 120.979C134.477 120.979 132.11 121.625 128.666 120.548C122.318 118.609 114.893 105.253 118.552 87.5336C124.201 60.2279 162.83 50.2105 179.455 62.6515C196.079 75.0925 198.178 83.5481 195.972 93.404C195.972 93.404 193.605 88.4491 188.816 86.7257C184.028 85.0023 179.347 83.225 177.948 80.963C177.948 80.963 186.288 91.6267 159.441 87.9644C159.441 87.9644 141.363 88.88 139.265 106.384C139.265 106.384 135.069 101.159 131.034 103.206C129.366 104.068 128.774 104.391 127.214 107.03C125.169 110.423 124.577 119.202 134.477 120.979Z" fill="black"/>
<path d="M208.07 220.609C208.07 220.609 220.552 233.966 225.448 245.33" stroke="black" stroke-width="0.636942" stroke-miterlimit="10"/>
<path d="M216.422 225.242C216.422 225.242 223.631 231.974 227.182 241.938" stroke="black" stroke-width="0.636942" stroke-miterlimit="10"/>
<path d="M64.9141 104.008C64.9141 104.008 78.741 104.708 92.1914 105.947" stroke="black" stroke-width="0.636942" stroke-miterlimit="10"/>
<path d="M60.0703 109.823C60.0703 109.823 79.5464 109.5 92.9968 110.739" stroke="black" stroke-width="0.636942" stroke-miterlimit="10"/>
<path d="M63.25 115.532C63.25 115.532 78.9062 113.916 92.3566 115.155" stroke="black" stroke-width="0.636942" stroke-miterlimit="10"/>
<path d="M117.856 91.6719C117.856 91.6719 115.489 94.9572 115.328 98.8887C115.166 102.82 115.597 106.321 117.587 109.014C119.578 111.707 121.246 117.9 124.743 119.354C128.24 120.809 130.984 120.862 130.984 120.862" stroke="black" stroke-width="0.636942" stroke-miterlimit="10"/>
<path opacity="0.1" d="M160.842 362.657C158.615 363.771 155.195 366.396 153.047 368.703C148.513 373.873 141.354 388.112 136.104 402.828L132.285 413.487L125.922 419.215C119.24 425.181 112.319 430.908 110.49 431.942C109.853 432.34 111.205 430.113 113.433 427.01C118.921 419.533 124.331 409.192 125.762 403.385C128.228 394.158 126.797 384.692 122.66 381.987C119.399 379.839 113.592 380.396 109.296 383.101C100.308 388.748 97.2053 398.93 95.0575 429.954L94.103 443.795L88.8529 447.056C80.6596 452.306 63.1593 462.09 58.2275 464.159C57.8297 464.318 60.9321 460.738 65.2276 456.204C77.7164 442.999 83.2846 433.295 83.2846 424.783C83.2846 416.828 79.1482 412.851 71.5913 413.487C63.7957 414.124 58.1479 420.647 54.0115 433.692C51.3865 442.124 47.4091 457.556 45.8978 465.511L44.9432 470.443L39.2158 472.59C36.1135 473.784 32.5339 475.216 31.1816 475.772C23.5452 479.034 -6.92114 487.227 -7.8757 486.272C-8.03479 486.113 -5.09157 483.488 -1.35288 480.466C14.636 467.659 25.2157 453.34 24.1815 445.942C23.6247 441.647 21.7156 438.942 18.2951 437.431C13.2041 435.363 7.79497 437.272 1.1926 443.397C-5.4893 449.681 -10.7394 460.659 -14.9553 477.363L-17.5008 487.704L-21.3986 488.261C-32.6942 489.773 -49.6376 488.341 -59.3423 485C-67.2174 482.295 -74.6152 477.841 -78.9903 473.306C-83.3654 468.693 -83.5244 468.613 -85.354 469.806C-86.3086 470.363 -86.229 470.761 -84.9563 472.352C-73.6607 485.954 -50.8308 492.636 -22.6714 490.568L-11.4553 489.773L-2.0688 499.159C3.579 504.807 10.0223 510.296 14.0791 512.921C30.3862 523.739 42.7954 523.023 42.7159 511.409C42.6364 505.045 37.3067 497.807 29.8294 493.989C25.6929 491.92 16.5451 489.295 10.4995 488.42C3.81764 487.545 4.05628 486.909 11.8518 484.92C15.9087 483.886 22.6702 481.897 26.8066 480.545L34.4431 478L36.7499 479.909C40.8068 483.17 51.7842 489.534 57.5911 492.079C68.0117 496.454 74.614 497.886 84.0801 497.489C94.4211 497.17 99.2735 495.182 101.819 490.17C103.33 487.307 103.33 486.829 102.296 483.886C101.58 481.738 99.9894 479.75 97.7621 478C91.7166 473.386 83.046 471.954 63.398 472.352C55.5229 472.511 49.0796 472.431 49.1592 472.193C49.1592 471.954 53.6933 469.647 59.182 467.022C64.7503 464.397 73.8186 459.465 79.4664 456.124L89.8074 450.079L92.6711 451.272C97.1257 453.102 109.933 456.84 117.49 458.431C121.944 459.386 127.592 459.863 134.194 459.784C142.785 459.784 144.774 459.545 148.911 457.874C158.058 454.295 160.683 448.249 155.592 442.442C148.751 434.567 132.763 434.329 107.546 441.567C103.728 442.681 100.467 443.476 100.387 443.397C100.228 443.238 105.001 439.499 110.967 435.045C117.012 430.51 125.285 423.828 129.422 420.169C135.785 414.522 137.933 413.09 142.945 411.26C165.933 403.067 179.695 390.339 180.888 376.101C181.206 372.441 180.888 370.93 179.377 368.066C176.911 363.294 174.127 361.464 169.036 361.066C165.774 360.828 163.865 361.225 160.842 362.657ZM172.218 364.805C174.922 366.475 177.15 370.532 177.15 373.873C177.15 374.907 176.434 378.169 175.559 381.032C172.774 389.862 163.706 398.215 149.388 405.056C146.206 406.567 143.422 407.76 143.342 407.601C143.183 407.442 145.729 404.18 148.99 400.283C152.251 396.385 154.876 392.885 154.876 392.487C154.876 392.169 154.001 391.851 152.967 391.851C151.615 391.851 149.786 393.442 146.206 397.896C143.422 401.237 141.035 403.703 140.797 403.544C140.16 402.908 145.888 389.067 150.104 381.032C155.036 371.487 158.217 367.669 163.149 365.203C167.922 362.816 168.877 362.737 172.218 364.805ZM120.831 385.567C122.024 387.158 122.342 388.908 122.342 393.76C122.342 397.101 121.944 401.317 121.387 403.226C119.319 411.101 110.887 425.022 102.376 434.806L99.2735 438.385L99.1939 433.931C99.1939 428.84 101.262 407.999 102.376 402.033C103.887 394.078 107.626 388.033 113.115 384.612C116.217 382.623 118.921 382.942 120.831 385.567ZM77.8755 418.976C81.8528 424.226 78.6709 434.17 69.4435 445.545C62.523 454.215 50.6705 465.829 50.6705 463.999C50.6705 461.852 57.5116 435.681 59.5002 430.431C62.9207 421.124 67.773 416.272 73.2618 416.669C75.4891 416.828 76.7618 417.465 77.8755 418.976ZM148.354 440.533C154.081 443.238 155.752 448.806 151.854 452.545C144.774 459.306 125.683 458.988 102.455 451.829C98.478 450.556 95.2166 449.283 95.2166 448.965C95.2166 448.329 106.91 444.511 116.694 441.965C132.603 437.829 141.751 437.431 148.354 440.533ZM17.8178 441.647C19.5679 443.397 19.8065 444.192 19.4883 447.454C19.011 452.227 16.4655 457.556 12.0109 463.045C8.66998 467.102 -7.71661 481.818 -10.8189 483.488C-12.1712 484.204 -12.2508 484.045 -11.7735 481.579C-10.5803 476.011 -5.56885 462.249 -2.38699 455.727C4.21537 442.124 12.4882 436.397 17.8178 441.647ZM83.2051 476.25C92.9893 477.92 98.3985 481.738 98.3985 486.988C98.3985 492.159 91.8756 494.943 80.8982 494.227C72.9436 493.75 65.7048 491.602 55.8411 486.909C47.6478 482.932 39.2158 477.761 39.8522 477.125C41.5227 475.534 75.0118 474.897 83.2051 476.25ZM9.62453 490.568C26.727 492.795 37.3863 500.273 38.5795 510.852C39.0568 515.387 37.3863 517.534 33.1703 517.534C29.5112 517.534 19.4088 512.682 12.4882 507.591C7.23814 503.693 -5.80749 490.886 -5.80749 489.613C-5.80749 488.898 -1.35288 489.136 9.62453 490.568Z" fill="#625580"/>
<path opacity="0.1" d="M97.8425 293.657C95.6152 294.771 92.1947 297.396 90.0469 299.703C85.5128 304.873 78.3536 319.112 73.1035 333.828L69.2853 344.487L62.9216 350.215C56.2397 356.181 49.3191 361.908 47.4895 362.942C46.8532 363.34 48.2054 361.113 50.4328 358.01C55.9215 350.533 61.3306 340.192 62.7625 334.385C65.2284 325.158 63.7966 315.692 59.6602 312.987C56.3987 310.839 50.5918 311.396 46.2963 314.101C37.3076 319.748 34.2053 329.93 32.0575 360.954L31.103 374.795L25.8529 378.056C17.6596 383.306 0.159348 393.09 -4.77254 395.159C-5.17027 395.318 -2.06795 391.738 2.22755 387.204C14.7164 373.999 20.2846 364.295 20.2846 355.783C20.2846 347.828 16.1482 343.851 8.59128 344.487C0.795715 345.124 -4.85208 351.647 -8.98849 364.692C-11.6135 373.124 -15.5909 388.556 -17.1022 396.511L-18.0568 401.443L-23.7842 403.59C-26.8865 404.784 -30.4661 406.216 -31.8184 406.772C-39.4548 410.034 -69.9211 418.227 -70.8757 417.272C-71.0348 417.113 -68.0916 414.488 -64.3529 411.466C-48.364 398.659 -37.7843 384.34 -38.8185 376.942C-39.3753 372.647 -41.2844 369.942 -44.7049 368.431C-49.7959 366.363 -55.205 368.272 -61.8074 374.397C-68.4893 380.681 -73.7394 391.659 -77.9553 408.363L-80.5008 418.704L-84.3986 419.261C-95.6942 420.773 -112.638 419.341 -122.342 416C-130.217 413.295 -137.615 408.841 -141.99 404.306C-146.365 399.693 -146.524 399.613 -148.354 400.806C-149.309 401.363 -149.229 401.761 -147.956 403.352C-136.661 416.954 -113.831 423.636 -85.6714 421.568L-74.4553 420.773L-65.0688 430.159C-59.421 435.807 -52.9777 441.296 -48.9209 443.921C-32.6138 454.739 -20.2046 454.023 -20.2841 442.409C-20.3636 436.045 -25.6933 428.807 -33.1706 424.989C-37.3071 422.92 -46.4549 420.295 -52.5005 419.42C-59.1824 418.545 -58.9437 417.909 -51.1482 415.92C-47.0913 414.886 -40.3298 412.897 -36.1934 411.545L-28.5569 409L-26.2501 410.909C-22.1932 414.17 -11.2158 420.534 -5.40891 423.079C5.01169 427.454 11.614 428.886 21.0801 428.489C31.4211 428.17 36.2735 426.182 38.819 421.17C40.3304 418.307 40.3304 417.829 39.2962 414.886C38.5803 412.738 36.9894 410.75 34.7621 409C28.7166 404.386 20.046 402.954 0.397995 403.352C-7.47711 403.511 -13.9204 403.431 -13.8408 403.193C-13.8408 402.954 -9.30669 400.647 -3.81798 398.022C1.75027 395.397 10.8186 390.465 16.4664 387.124L26.8074 381.079L29.6711 382.272C34.1257 384.102 46.9327 387.84 54.4896 389.431C58.9442 390.386 64.592 390.863 71.1944 390.784C79.7854 390.784 81.7741 390.545 85.9105 388.874C95.0583 385.295 97.6834 379.249 92.5924 373.442C85.7514 365.567 69.7626 365.329 44.5463 372.567C40.7281 373.681 37.4667 374.476 37.3871 374.397C37.228 374.238 42.0008 370.499 47.9668 366.045C54.0123 361.51 62.2852 354.828 66.4216 351.169C72.7853 345.522 74.9331 344.09 79.9445 342.26C102.933 334.067 116.695 321.339 117.888 307.101C118.206 303.441 117.888 301.93 116.377 299.066C113.911 294.294 111.127 292.464 106.036 292.066C102.774 291.828 100.865 292.225 97.8425 293.657ZM109.218 295.805C111.922 297.475 114.15 301.532 114.15 304.873C114.15 305.907 113.434 309.169 112.559 312.032C109.774 320.862 100.706 329.215 86.3878 336.056C83.2059 337.567 80.4218 338.76 80.3423 338.601C80.1832 338.442 82.7286 335.18 85.9901 331.283C89.2515 327.385 91.8765 323.885 91.8765 323.487C91.8765 323.169 91.0015 322.851 89.9674 322.851C88.6151 322.851 86.7855 324.442 83.2059 328.896C80.4218 332.237 78.0354 334.703 77.7968 334.544C77.1604 333.908 82.8877 320.067 87.1037 312.032C92.0356 302.487 95.2175 298.669 100.149 296.203C104.922 293.816 105.877 293.737 109.218 295.805ZM57.8306 316.567C59.0238 318.158 59.342 319.908 59.342 324.76C59.342 328.101 58.9442 332.317 58.3874 334.226C56.3192 342.101 47.8873 356.022 39.3758 365.806L36.2735 369.385L36.1939 364.931C36.1939 359.84 38.2621 338.999 39.3758 333.033C40.8872 325.078 44.6259 319.033 50.1146 315.612C53.2169 313.623 55.9215 313.942 57.8306 316.567ZM14.8755 349.976C18.8528 355.226 15.6709 365.17 6.44353 376.545C-0.47702 385.215 -12.3295 396.829 -12.3295 394.999C-12.3295 392.852 -5.48845 366.681 -3.49979 361.431C-0.0792847 352.124 4.77304 347.272 10.2618 347.669C12.4891 347.828 13.7618 348.465 14.8755 349.976ZM85.3537 371.533C91.081 374.238 92.7515 379.806 88.8537 383.545C81.7741 390.306 62.6829 389.988 39.4553 382.829C35.478 381.556 32.2166 380.283 32.2166 379.965C32.2166 379.329 43.9099 375.511 53.6942 372.965C69.6035 368.829 78.7513 368.431 85.3537 371.533ZM-45.1822 372.647C-43.4321 374.397 -43.1935 375.192 -43.5117 378.454C-43.989 383.227 -46.5345 388.556 -50.9891 394.045C-54.33 398.102 -70.7166 412.818 -73.8189 414.488C-75.1712 415.204 -75.2508 415.045 -74.7735 412.579C-73.5803 407.011 -68.5688 393.249 -65.387 386.727C-58.7846 373.124 -50.5118 367.397 -45.1822 372.647ZM20.2051 407.25C29.9893 408.92 35.3985 412.738 35.3985 417.988C35.3985 423.159 28.8756 425.943 17.8982 425.227C9.94357 424.75 2.70483 422.602 -7.15894 417.909C-15.3522 413.932 -23.7842 408.761 -23.1478 408.125C-21.4773 406.534 12.0118 405.897 20.2051 407.25ZM-53.3755 421.568C-36.273 423.795 -25.6137 431.273 -24.4205 441.852C-23.9432 446.387 -25.6137 448.534 -29.8297 448.534C-33.4888 448.534 -43.5912 443.682 -50.5118 438.591C-55.7619 434.693 -68.8075 421.886 -68.8075 420.613C-68.8075 419.898 -64.3529 420.136 -53.3755 421.568Z" fill="#625580"/>
<path opacity="0.1" d="M26.8425 27.6572C24.6152 28.7709 21.1947 31.3959 19.0469 33.7027C14.5128 38.8733 7.35359 53.1121 2.10352 67.8282L-1.71472 78.4874L-8.07845 84.2148C-14.7603 90.1808 -21.6809 95.9081 -23.5105 96.9422C-24.1468 97.34 -22.7946 95.1127 -20.5672 92.0103C-15.0785 84.533 -9.66937 74.1919 -8.23753 68.385C-5.77159 59.1576 -7.20343 49.6916 -11.3398 46.987C-14.6013 44.8393 -20.4082 45.3961 -24.7037 48.1007C-33.6924 53.7485 -36.7947 63.9304 -38.9425 94.9536L-39.897 108.795L-45.1471 112.056C-53.3404 117.306 -70.8407 127.09 -75.7725 129.159C-76.1703 129.318 -73.0679 125.738 -68.7724 121.204C-56.2836 107.999 -50.7154 98.2945 -50.7154 89.783C-50.7154 81.8284 -54.8518 77.8511 -62.4087 78.4874C-70.2043 79.1238 -75.8521 85.6466 -79.9885 98.6923C-82.6135 107.124 -86.5909 122.556 -88.1022 130.511L-89.0568 135.443L-94.7842 137.59C-97.8865 138.784 -101.466 140.216 -102.818 140.772C-110.455 144.034 -140.921 152.227 -141.876 151.272C-142.035 151.113 -139.092 148.488 -135.353 145.466C-119.364 132.659 -108.784 118.34 -109.818 110.942C-110.375 106.647 -112.284 103.942 -115.705 102.431C-120.796 100.363 -126.205 102.272 -132.807 108.397C-139.489 114.681 -144.739 125.659 -148.955 142.363L-151.501 152.704L-155.399 153.261C-166.694 154.773 -183.638 153.341 -193.342 150C-201.217 147.295 -208.615 142.841 -212.99 138.306C-217.365 133.693 -217.524 133.613 -219.354 134.806C-220.309 135.363 -220.229 135.761 -218.956 137.352C-207.661 150.954 -184.831 157.636 -156.671 155.568L-145.455 154.773L-136.069 164.159C-130.421 169.807 -123.978 175.296 -119.921 177.921C-103.614 188.739 -91.2046 188.023 -91.2841 176.409C-91.3636 170.045 -96.6933 162.807 -104.171 158.989C-108.307 156.92 -117.455 154.295 -123.5 153.42C-130.182 152.545 -129.944 151.909 -122.148 149.92C-118.091 148.886 -111.33 146.897 -107.193 145.545L-99.5569 143L-97.2501 144.909C-93.1932 148.17 -82.2158 154.534 -76.4089 157.079C-65.9883 161.454 -59.386 162.886 -49.9199 162.489C-39.5789 162.17 -34.7265 160.182 -32.181 155.17C-30.6696 152.307 -30.6696 151.829 -31.7038 148.886C-32.4197 146.738 -34.0106 144.75 -36.2379 143C-42.2834 138.386 -50.954 136.954 -70.602 137.352C-78.4771 137.511 -84.9204 137.431 -84.8408 137.193C-84.8408 136.954 -80.3067 134.647 -74.818 132.022C-69.2497 129.397 -60.1814 124.465 -54.5336 121.124L-44.1926 115.079L-41.3289 116.272C-36.8743 118.102 -24.0673 121.84 -16.5104 123.431C-12.0558 124.386 -6.40796 124.863 0.194397 124.784C8.78542 124.784 10.7741 124.545 14.9105 122.874C24.0583 119.295 26.6834 113.249 21.5924 107.442C14.7514 99.5673 -1.23744 99.3286 -26.4537 106.567C-30.2719 107.681 -33.5333 108.476 -33.6129 108.397C-33.772 108.238 -28.9992 104.499 -23.0332 100.045C-16.9877 95.5104 -8.71481 88.8285 -4.5784 85.1693C1.78532 79.5215 3.93309 78.0897 8.94452 76.2601C31.9335 68.0668 45.695 55.3394 46.8882 41.1006C47.2064 37.4414 46.8882 35.9301 45.3768 33.0664C42.9109 28.2936 40.1267 26.464 35.0358 26.0663C31.7744 25.8276 29.8652 26.2254 26.8425 27.6572ZM38.2177 29.805C40.9222 31.4754 43.1495 35.5323 43.1495 38.8733C43.1495 39.9074 42.4336 43.1688 41.5586 46.0325C38.7745 54.8621 29.7062 63.2145 15.3878 70.0555C12.2059 71.5669 9.4218 72.7601 9.34225 72.601C9.18315 72.4419 11.7286 69.1805 14.9901 65.2827C18.2515 61.3849 20.8765 57.8849 20.8765 57.4872C20.8765 57.169 20.0015 56.8508 18.9674 56.8508C17.6151 56.8508 15.7855 58.4417 12.2059 62.8963C9.4218 66.2373 7.0354 68.7032 6.79675 68.5441C6.16039 67.9077 11.8877 54.0667 16.1037 46.0325C21.0356 36.4869 24.2175 32.6686 29.1493 30.2027C33.9221 27.8163 34.8767 27.7368 38.2177 29.805ZM-13.1694 50.5666C-11.9762 52.1575 -11.658 53.9076 -11.658 58.7599C-11.658 62.1009 -12.0558 66.3168 -12.6126 68.2259C-14.6808 76.101 -23.1127 90.0217 -31.6242 99.8059L-34.7265 103.385L-34.8061 98.9309C-34.8061 93.8399 -32.7379 72.9987 -31.6242 67.0327C-30.1128 59.0781 -26.3741 53.0325 -20.8854 49.612C-17.7831 47.6234 -15.0785 47.9416 -13.1694 50.5666ZM-56.1245 83.9761C-52.1472 89.2262 -55.3291 99.1695 -64.5565 110.545C-71.477 119.215 -83.3295 130.829 -83.3295 128.999C-83.3295 126.852 -76.4884 100.681 -74.4998 95.4308C-71.0793 86.1239 -66.227 81.2716 -60.7382 81.6693C-58.5109 81.8284 -57.2382 82.4648 -56.1245 83.9761ZM14.3537 105.533C20.081 108.238 21.7515 113.806 17.8537 117.545C10.7741 124.306 -8.31708 123.988 -31.5447 116.829C-35.522 115.556 -38.7834 114.283 -38.7834 113.965C-38.7834 113.329 -27.0901 109.511 -17.3058 106.965C-1.39653 102.829 7.75131 102.431 14.3537 105.533ZM-116.182 106.647C-114.432 108.397 -114.194 109.192 -114.512 112.454C-114.989 117.227 -117.534 122.556 -121.989 128.045C-125.33 132.102 -141.717 146.818 -144.819 148.488C-146.171 149.204 -146.251 149.045 -145.773 146.579C-144.58 141.011 -139.569 127.249 -136.387 120.727C-129.785 107.124 -121.512 101.397 -116.182 106.647ZM-50.7949 141.25C-41.0107 142.92 -35.6015 146.738 -35.6015 151.988C-35.6015 157.159 -42.1244 159.943 -53.1018 159.227C-61.0564 158.75 -68.2952 156.602 -78.1589 151.909C-86.3522 147.932 -94.7842 142.761 -94.1478 142.125C-92.4773 140.534 -58.9882 139.897 -50.7949 141.25ZM-124.375 155.568C-107.273 157.795 -96.6137 165.273 -95.4205 175.852C-94.9432 180.387 -96.6137 182.534 -100.83 182.534C-104.489 182.534 -114.591 177.682 -121.512 172.591C-126.762 168.693 -139.807 155.886 -139.807 154.613C-139.807 153.898 -135.353 154.136 -124.375 155.568Z" fill="#625580"/>
<path opacity="0.1" d="M239.842 422.657C237.615 423.771 234.195 426.396 232.047 428.703C227.513 433.873 220.354 448.112 215.104 462.828L211.285 473.487L204.922 479.215C198.24 485.181 191.319 490.908 189.49 491.942C188.853 492.34 190.205 490.113 192.433 487.01C197.921 479.533 203.331 469.192 204.762 463.385C207.228 454.158 205.797 444.692 201.66 441.987C198.399 439.839 192.592 440.396 188.296 443.101C179.308 448.748 176.205 458.93 174.058 489.954L173.103 503.795L167.853 507.056C159.66 512.306 142.159 522.09 137.227 524.159C136.83 524.318 139.932 520.738 144.228 516.204C156.716 502.999 162.285 493.295 162.285 484.783C162.285 476.828 158.148 472.851 150.591 473.487C142.796 474.124 137.148 480.647 133.012 493.692C130.386 502.124 126.409 517.556 124.898 525.511L123.943 530.443L118.216 532.59C115.114 533.784 111.534 535.216 110.182 535.772C102.545 539.034 72.0789 547.227 71.1243 546.272C70.9652 546.113 73.9084 543.488 77.6471 540.466C93.636 527.659 104.216 513.34 103.182 505.942C102.625 501.647 100.716 498.942 97.2951 497.431C92.2041 495.363 86.795 497.272 80.1926 503.397C73.5107 509.681 68.2606 520.659 64.0447 537.363L61.4992 547.704L57.6014 548.261C46.3058 549.773 29.3624 548.341 19.6577 545C11.7826 542.295 4.38477 537.841 0.00970697 533.306C-4.36535 528.693 -4.52445 528.613 -6.35401 529.806C-7.30857 530.363 -7.22903 530.761 -5.95628 532.352C5.33932 545.954 28.1692 552.636 56.3286 550.568L67.5447 549.773L76.9312 559.159C82.579 564.807 89.0223 570.296 93.0791 572.921C109.386 583.739 121.795 583.023 121.716 571.409C121.636 565.045 116.307 557.807 108.829 553.989C104.693 551.92 95.5451 549.295 89.4995 548.42C82.8176 547.545 83.0563 546.909 90.8518 544.92C94.9087 543.886 101.67 541.897 105.807 540.545L113.443 538L115.75 539.909C119.807 543.17 130.784 549.534 136.591 552.079C147.012 556.454 153.614 557.886 163.08 557.489C173.421 557.17 178.273 555.182 180.819 550.17C182.33 547.307 182.33 546.829 181.296 543.886C180.58 541.738 178.989 539.75 176.762 538C170.717 533.386 162.046 531.954 142.398 532.352C134.523 532.511 128.08 532.431 128.159 532.193C128.159 531.954 132.693 529.647 138.182 527.022C143.75 524.397 152.819 519.465 158.466 516.124L168.807 510.079L171.671 511.272C176.126 513.102 188.933 516.84 196.49 518.431C200.944 519.386 206.592 519.863 213.194 519.784C221.785 519.784 223.774 519.545 227.911 517.874C237.058 514.295 239.683 508.249 234.592 502.442C227.751 494.567 211.763 494.329 186.546 501.567C182.728 502.681 179.467 503.476 179.387 503.397C179.228 503.238 184.001 499.499 189.967 495.045C196.012 490.51 204.285 483.828 208.422 480.169C214.785 474.522 216.933 473.09 221.945 471.26C244.933 463.067 258.695 450.339 259.888 436.101C260.206 432.441 259.888 430.93 258.377 428.066C255.911 423.294 253.127 421.464 248.036 421.066C244.774 420.828 242.865 421.225 239.842 422.657ZM251.218 424.805C253.922 426.475 256.15 430.532 256.15 433.873C256.15 434.907 255.434 438.169 254.559 441.032C251.774 449.862 242.706 458.215 228.388 465.056C225.206 466.567 222.422 467.76 222.342 467.601C222.183 467.442 224.729 464.18 227.99 460.283C231.251 456.385 233.876 452.885 233.876 452.487C233.876 452.169 233.001 451.851 231.967 451.851C230.615 451.851 228.786 453.442 225.206 457.896C222.422 461.237 220.035 463.703 219.797 463.544C219.16 462.908 224.888 449.067 229.104 441.032C234.036 431.487 237.217 427.669 242.149 425.203C246.922 422.816 247.877 422.737 251.218 424.805ZM199.831 445.567C201.024 447.158 201.342 448.908 201.342 453.76C201.342 457.101 200.944 461.317 200.387 463.226C198.319 471.101 189.887 485.022 181.376 494.806L178.273 498.385L178.194 493.931C178.194 488.84 180.262 467.999 181.376 462.033C182.887 454.078 186.626 448.033 192.115 444.612C195.217 442.623 197.921 442.942 199.831 445.567ZM156.875 478.976C160.853 484.226 157.671 494.17 148.444 505.545C141.523 514.215 129.671 525.829 129.671 523.999C129.671 521.852 136.512 495.681 138.5 490.431C141.921 481.124 146.773 476.272 152.262 476.669C154.489 476.828 155.762 477.465 156.875 478.976ZM227.354 500.533C233.081 503.238 234.752 508.806 230.854 512.545C223.774 519.306 204.683 518.988 181.455 511.829C177.478 510.556 174.217 509.283 174.217 508.965C174.217 508.329 185.91 504.511 195.694 501.965C211.603 497.829 220.751 497.431 227.354 500.533ZM96.8178 501.647C98.5679 503.397 98.8065 504.192 98.4883 507.454C98.011 512.227 95.4655 517.556 91.0109 523.045C87.67 527.102 71.2834 541.818 68.1811 543.488C66.8288 544.204 66.7492 544.045 67.2265 541.579C68.4197 536.011 73.4312 522.249 76.613 515.727C83.2154 502.124 91.4882 496.397 96.8178 501.647ZM162.205 536.25C171.989 537.92 177.398 541.738 177.398 546.988C177.398 552.159 170.876 554.943 159.898 554.227C151.944 553.75 144.705 551.602 134.841 546.909C126.648 542.932 118.216 537.761 118.852 537.125C120.523 535.534 154.012 534.897 162.205 536.25ZM88.6245 550.568C105.727 552.795 116.386 560.273 117.579 570.852C118.057 575.387 116.386 577.534 112.17 577.534C108.511 577.534 98.4088 572.682 91.4882 567.591C86.2381 563.693 73.1925 550.886 73.1925 549.613C73.1925 548.898 77.6471 549.136 88.6245 550.568Z" fill="#625580"/>
<path opacity="0.1" d="M335.842 473.657C333.615 474.771 330.195 477.396 328.047 479.703C323.513 484.873 316.354 499.112 311.104 513.828L307.285 524.487L300.922 530.215C294.24 536.181 287.319 541.908 285.49 542.942C284.853 543.34 286.205 541.113 288.433 538.01C293.921 530.533 299.331 520.192 300.762 514.385C303.228 505.158 301.797 495.692 297.66 492.987C294.399 490.839 288.592 491.396 284.296 494.101C275.308 499.748 272.205 509.93 270.058 540.954L269.103 554.795L263.853 558.056C255.66 563.306 238.159 573.09 233.227 575.159C232.83 575.318 235.932 571.738 240.228 567.204C252.716 553.999 258.285 544.295 258.285 535.783C258.285 527.828 254.148 523.851 246.591 524.487C238.796 525.124 233.148 531.647 229.012 544.692C226.386 553.124 222.409 568.556 220.898 576.511L219.943 581.443L214.216 583.59C211.114 584.784 207.534 586.216 206.182 586.772C198.545 590.034 168.079 598.227 167.124 597.272C166.965 597.113 169.908 594.488 173.647 591.466C189.636 578.659 200.216 564.34 199.182 556.942C198.625 552.647 196.716 549.942 193.295 548.431C188.204 546.363 182.795 548.272 176.193 554.397C169.511 560.681 164.261 571.659 160.045 588.363L157.499 598.704L153.601 599.261C142.306 600.773 125.362 599.341 115.658 596C107.783 593.295 100.385 588.841 96.0097 584.306C91.6346 579.693 91.4756 579.613 89.646 580.806C88.6914 581.363 88.771 581.761 90.0437 583.352C101.339 596.954 124.169 603.636 152.329 601.568L163.545 600.773L172.931 610.159C178.579 615.807 185.022 621.296 189.079 623.921C205.386 634.739 217.795 634.023 217.716 622.409C217.636 616.045 212.307 608.807 204.829 604.989C200.693 602.92 191.545 600.295 185.5 599.42C178.818 598.545 179.056 597.909 186.852 595.92C190.909 594.886 197.67 592.897 201.807 591.545L209.443 589L211.75 590.909C215.807 594.17 226.784 600.534 232.591 603.079C243.012 607.454 249.614 608.886 259.08 608.489C269.421 608.17 274.273 606.182 276.819 601.17C278.33 598.307 278.33 597.829 277.296 594.886C276.58 592.738 274.989 590.75 272.762 589C266.717 584.386 258.046 582.954 238.398 583.352C230.523 583.511 224.08 583.431 224.159 583.193C224.159 582.954 228.693 580.647 234.182 578.022C239.75 575.397 248.819 570.465 254.466 567.124L264.807 561.079L267.671 562.272C272.126 564.102 284.933 567.84 292.49 569.431C296.944 570.386 302.592 570.863 309.194 570.784C317.785 570.784 319.774 570.545 323.911 568.874C333.058 565.295 335.683 559.249 330.592 553.442C323.751 545.567 307.763 545.329 282.546 552.567C278.728 553.681 275.467 554.476 275.387 554.397C275.228 554.238 280.001 550.499 285.967 546.045C292.012 541.51 300.285 534.828 304.422 531.169C310.785 525.522 312.933 524.09 317.945 522.26C340.933 514.067 354.695 501.339 355.888 487.101C356.206 483.441 355.888 481.93 354.377 479.066C351.911 474.294 349.127 472.464 344.036 472.066C340.774 471.828 338.865 472.225 335.842 473.657ZM347.218 475.805C349.922 477.475 352.15 481.532 352.15 484.873C352.15 485.907 351.434 489.169 350.559 492.032C347.774 500.862 338.706 509.215 324.388 516.056C321.206 517.567 318.422 518.76 318.342 518.601C318.183 518.442 320.729 515.18 323.99 511.283C327.251 507.385 329.876 503.885 329.876 503.487C329.876 503.169 329.001 502.851 327.967 502.851C326.615 502.851 324.786 504.442 321.206 508.896C318.422 512.237 316.035 514.703 315.797 514.544C315.16 513.908 320.888 500.067 325.104 492.032C330.036 482.487 333.217 478.669 338.149 476.203C342.922 473.816 343.877 473.737 347.218 475.805ZM295.831 496.567C297.024 498.158 297.342 499.908 297.342 504.76C297.342 508.101 296.944 512.317 296.387 514.226C294.319 522.101 285.887 536.022 277.376 545.806L274.273 549.385L274.194 544.931C274.194 539.84 276.262 518.999 277.376 513.033C278.887 505.078 282.626 499.033 288.115 495.612C291.217 493.623 293.921 493.942 295.831 496.567ZM252.875 529.976C256.853 535.226 253.671 545.17 244.444 556.545C237.523 565.215 225.671 576.829 225.671 574.999C225.671 572.852 232.512 546.681 234.5 541.431C237.921 532.124 242.773 527.272 248.262 527.669C250.489 527.828 251.762 528.465 252.875 529.976ZM323.354 551.533C329.081 554.238 330.752 559.806 326.854 563.545C319.774 570.306 300.683 569.988 277.455 562.829C273.478 561.556 270.217 560.283 270.217 559.965C270.217 559.329 281.91 555.511 291.694 552.965C307.603 548.829 316.751 548.431 323.354 551.533ZM192.818 552.647C194.568 554.397 194.806 555.192 194.488 558.454C194.011 563.227 191.466 568.556 187.011 574.045C183.67 578.102 167.283 592.818 164.181 594.488C162.829 595.204 162.749 595.045 163.227 592.579C164.42 587.011 169.431 573.249 172.613 566.727C179.215 553.124 187.488 547.397 192.818 552.647ZM258.205 587.25C267.989 588.92 273.398 592.738 273.398 597.988C273.398 603.159 266.876 605.943 255.898 605.227C247.944 604.75 240.705 602.602 230.841 597.909C222.648 593.932 214.216 588.761 214.852 588.125C216.523 586.534 250.012 585.897 258.205 587.25ZM184.625 601.568C201.727 603.795 212.386 611.273 213.579 621.852C214.057 626.387 212.386 628.534 208.17 628.534C204.511 628.534 194.409 623.682 187.488 618.591C182.238 614.693 169.193 601.886 169.193 600.613C169.193 599.898 173.647 600.136 184.625 601.568Z" fill="#625580"/>
<path opacity="0.1" d="M392.842 502.657C390.615 503.771 387.195 506.396 385.047 508.703C380.513 513.873 373.354 528.112 368.104 542.828L364.285 553.487L357.922 559.215C351.24 565.181 344.319 570.908 342.49 571.942C341.853 572.34 343.205 570.113 345.433 567.01C350.921 559.533 356.331 549.192 357.762 543.385C360.228 534.158 358.797 524.692 354.66 521.987C351.399 519.839 345.592 520.396 341.296 523.101C332.308 528.748 329.205 538.93 327.058 569.954L326.103 583.795L320.853 587.056C312.66 592.306 295.159 602.09 290.227 604.159C289.83 604.318 292.932 600.738 297.228 596.204C309.716 582.999 315.285 573.295 315.285 564.783C315.285 556.828 311.148 552.851 303.591 553.487C295.796 554.124 290.148 560.647 286.012 573.692C283.386 582.124 279.409 597.556 277.898 605.511L276.943 610.443L271.216 612.59C268.114 613.784 264.534 615.216 263.182 615.772C255.545 619.034 225.079 627.227 224.124 626.272C223.965 626.113 226.908 623.488 230.647 620.466C246.636 607.659 257.216 593.34 256.182 585.942C255.625 581.647 253.716 578.942 250.295 577.431C245.204 575.363 239.795 577.272 233.193 583.397C226.511 589.681 221.261 600.659 217.045 617.363L214.499 627.704L210.601 628.261C199.306 629.773 182.362 628.341 172.658 625C164.783 622.295 157.385 617.841 153.01 613.306C148.635 608.693 148.476 608.613 146.646 609.806C145.691 610.363 145.771 610.761 147.044 612.352C158.339 625.954 181.169 632.636 209.329 630.568L220.545 629.773L229.931 639.159C235.579 644.807 242.022 650.296 246.079 652.921C262.386 663.739 274.795 663.023 274.716 651.409C274.636 645.045 269.307 637.807 261.829 633.989C257.693 631.92 248.545 629.295 242.5 628.42C235.818 627.545 236.056 626.909 243.852 624.92C247.909 623.886 254.67 621.897 258.807 620.545L266.443 618L268.75 619.909C272.807 623.17 283.784 629.534 289.591 632.079C300.012 636.454 306.614 637.886 316.08 637.489C326.421 637.17 331.273 635.182 333.819 630.17C335.33 627.307 335.33 626.829 334.296 623.886C333.58 621.738 331.989 619.75 329.762 618C323.717 613.386 315.046 611.954 295.398 612.352C287.523 612.511 281.08 612.431 281.159 612.193C281.159 611.954 285.693 609.647 291.182 607.022C296.75 604.397 305.819 599.465 311.466 596.124L321.807 590.079L324.671 591.272C329.126 593.102 341.933 596.84 349.49 598.431C353.944 599.386 359.592 599.863 366.194 599.784C374.785 599.784 376.774 599.545 380.911 597.874C390.058 594.295 392.683 588.249 387.592 582.442C380.751 574.567 364.763 574.329 339.546 581.567C335.728 582.681 332.467 583.476 332.387 583.397C332.228 583.238 337.001 579.499 342.967 575.045C349.012 570.51 357.285 563.828 361.422 560.169C367.785 554.522 369.933 553.09 374.945 551.26C397.933 543.067 411.695 530.339 412.888 516.101C413.206 512.441 412.888 510.93 411.377 508.066C408.911 503.294 406.127 501.464 401.036 501.066C397.774 500.828 395.865 501.225 392.842 502.657ZM404.218 504.805C406.922 506.475 409.15 510.532 409.15 513.873C409.15 514.907 408.434 518.169 407.559 521.032C404.774 529.862 395.706 538.215 381.388 545.056C378.206 546.567 375.422 547.76 375.342 547.601C375.183 547.442 377.729 544.18 380.99 540.283C384.251 536.385 386.876 532.885 386.876 532.487C386.876 532.169 386.001 531.851 384.967 531.851C383.615 531.851 381.786 533.442 378.206 537.896C375.422 541.237 373.035 543.703 372.797 543.544C372.16 542.908 377.888 529.067 382.104 521.032C387.036 511.487 390.217 507.669 395.149 505.203C399.922 502.816 400.877 502.737 404.218 504.805ZM352.831 525.567C354.024 527.158 354.342 528.908 354.342 533.76C354.342 537.101 353.944 541.317 353.387 543.226C351.319 551.101 342.887 565.022 334.376 574.806L331.273 578.385L331.194 573.931C331.194 568.84 333.262 547.999 334.376 542.033C335.887 534.078 339.626 528.033 345.115 524.612C348.217 522.623 350.921 522.942 352.831 525.567ZM309.875 558.976C313.853 564.226 310.671 574.17 301.444 585.545C294.523 594.215 282.671 605.829 282.671 603.999C282.671 601.852 289.512 575.681 291.5 570.431C294.921 561.124 299.773 556.272 305.262 556.669C307.489 556.828 308.762 557.465 309.875 558.976ZM380.354 580.533C386.081 583.238 387.752 588.806 383.854 592.545C376.774 599.306 357.683 598.988 334.455 591.829C330.478 590.556 327.217 589.283 327.217 588.965C327.217 588.329 338.91 584.511 348.694 581.965C364.603 577.829 373.751 577.431 380.354 580.533ZM249.818 581.647C251.568 583.397 251.806 584.192 251.488 587.454C251.011 592.227 248.466 597.556 244.011 603.045C240.67 607.102 224.283 621.818 221.181 623.488C219.829 624.204 219.749 624.045 220.227 621.579C221.42 616.011 226.431 602.249 229.613 595.727C236.215 582.124 244.488 576.397 249.818 581.647ZM315.205 616.25C324.989 617.92 330.398 621.738 330.398 626.988C330.398 632.159 323.876 634.943 312.898 634.227C304.944 633.75 297.705 631.602 287.841 626.909C279.648 622.932 271.216 617.761 271.852 617.125C273.523 615.534 307.012 614.897 315.205 616.25ZM241.625 630.568C258.727 632.795 269.386 640.273 270.579 650.852C271.057 655.387 269.386 657.534 265.17 657.534C261.511 657.534 251.409 652.682 244.488 647.591C239.238 643.693 226.193 630.886 226.193 629.613C226.193 628.898 230.647 629.136 241.625 630.568Z" fill="#625580"/>
</svg>
